<?xml version="1.0" encoding="UTF-8" standalone="no"?>
<!-- Created with Inkscape (http://www.inkscape.org/) -->

<svg
   width="94.192169mm"
   height="90.548088mm"
   viewBox="0 0 94.19217 90.548089"
   version="1.1"
   id="svg1"
   xml:space="preserve"
   inkscape:version="1.3.2 (091e20e, 2023-11-25, custom)"
   sodipodi:docname="logo.svg"
   xmlns:inkscape="http://www.inkscape.org/namespaces/inkscape"
   xmlns:sodipodi="http://sodipodi.sourceforge.net/DTD/sodipodi-0.dtd"
   xmlns:xlink="http://www.w3.org/1999/xlink"
   xmlns="http://www.w3.org/2000/svg"
   xmlns:svg="http://www.w3.org/2000/svg"><sodipodi:namedview
     id="namedview1"
     pagecolor="#505050"
     bordercolor="#eeeeee"
     borderopacity="1"
     inkscape:showpageshadow="0"
     inkscape:pageopacity="0"
     inkscape:pagecheckerboard="0"
     inkscape:deskcolor="#505050"
     inkscape:document-units="mm"
     inkscape:zoom="1.4627806"
     inkscape:cx="117.58428"
     inkscape:cy="145.27127"
     inkscape:window-width="1440"
     inkscape:window-height="837"
     inkscape:window-x="3832"
     inkscape:window-y="-8"
     inkscape:window-maximized="1"
     inkscape:current-layer="layer5"
     inkscape:lockguides="false" /><defs
     id="defs1"><inkscape:path-effect
       effect="fillet_chamfer"
       id="path-effect21"
       is_visible="true"
       lpeversion="1"
       nodesatellites_param="F,0,0,1,0,5,0,1 @ F,0,0,1,0,0,0,1 @ F,0,0,1,0,5,0,1 @ F,0,0,1,0,0,0,1 @ F,0,0,1,0,5,0,1 @ F,0,0,1,0,0,0,1 @ F,0,0,1,0,5,0,1 @ F,0,0,1,0,0,0,1 @ F,0,0,1,0,5,0,1 @ F,0,0,1,0,0,0,1"
       radius="0"
       unit="px"
       method="auto"
       mode="F"
       chamfer_steps="1"
       flexible="false"
       use_knot_distance="true"
       apply_no_radius="true"
       apply_with_radius="true"
       only_selected="false"
       hide_knots="false" /><inkscape:path-effect
       effect="fillet_chamfer"
       id="path-effect20"
       nodesatellites_param="F,0,0,1,0,8.4297516,0,1 @ F,0,0,1,0,0,0,1 @ F,0,0,1,0,0,0,1 @ F,0,0,1,0,0,0,1 @ F,0,0,1,0,0,0,1 @ F,0,0,1,0,0,0,1 @ F,0,0,1,0,0,0,1 @ F,0,0,1,0,0,0,1 @ F,0,0,1,0,7.301685,0,1 @ F,0,0,1,0,0,0,1"
       is_visible="true"
       lpeversion="1"
       radius="0"
       unit="px"
       method="auto"
       mode="F"
       chamfer_steps="1"
       flexible="false"
       use_knot_distance="true"
       apply_no_radius="true"
       apply_with_radius="true"
       only_selected="true"
       hide_knots="false" /><linearGradient
       id="linearGradient3"
       inkscape:collect="always"><stop
         style="stop-color:#572a60;stop-opacity:1;"
         offset="0"
         id="stop3" /><stop
         style="stop-color:#572a60;stop-opacity:1;"
         offset="1"
         id="stop4" /></linearGradient><rect
       x="346.94199"
       y="511.35489"
       width="206.45612"
       height="175.35097"
       id="rect24" /><mask
       maskUnits="userSpaceOnUse"
       id="mask15"><circle
         style="fill:#ffffff;fill-opacity:1;stroke:#000000;stroke-width:0;stroke-linecap:round;stroke-linejoin:round;stroke-miterlimit:5.7;stroke-opacity:1;paint-order:stroke fill markers"
         id="circle16"
         cx="80.038063"
         cy="82.389465"
         r="19.80603"
         inkscape:label="circle15" /></mask><mask
       maskUnits="userSpaceOnUse"
       id="mask16"><circle
         style="fill:#ffffff;fill-opacity:1;stroke:#000000;stroke-width:0;stroke-linecap:round;stroke-linejoin:round;stroke-miterlimit:5.7;stroke-opacity:1;paint-order:stroke fill markers"
         id="circle17"
         cx="80.038063"
         cy="82.389465"
         r="19.80603"
         inkscape:label="circle15" /></mask><mask
       maskUnits="userSpaceOnUse"
       id="mask17"><circle
         style="fill:#ffffff;fill-opacity:1;stroke:#000000;stroke-width:0;stroke-linecap:round;stroke-linejoin:round;stroke-miterlimit:5.7;stroke-opacity:1;paint-order:stroke fill markers"
         id="circle18"
         cx="80.038063"
         cy="82.389465"
         r="19.80603"
         inkscape:label="circle15" /></mask><mask
       maskUnits="userSpaceOnUse"
       id="mask18"><circle
         style="fill:#ffffff;fill-opacity:1;stroke:#000000;stroke-width:0;stroke-linecap:round;stroke-linejoin:round;stroke-miterlimit:5.7;stroke-opacity:1;paint-order:stroke fill markers"
         id="circle19"
         cx="80.038063"
         cy="82.389465"
         r="19.80603"
         inkscape:label="circle15" /></mask><mask
       maskUnits="userSpaceOnUse"
       id="mask19"><circle
         style="fill:#ffffff;fill-opacity:1;stroke:#000000;stroke-width:0;stroke-linecap:round;stroke-linejoin:round;stroke-miterlimit:5.7;stroke-opacity:1;paint-order:stroke fill markers"
         id="circle20"
         cx="80.038063"
         cy="82.389465"
         r="19.80603"
         inkscape:label="circle15" /></mask><mask
       maskUnits="userSpaceOnUse"
       id="mask24"><ellipse
         style="fill:#ffffff;fill-opacity:1;stroke:none;stroke-width:0.0719884;stroke-linecap:round;stroke-linejoin:round;stroke-miterlimit:5.7;stroke-dasharray:none;stroke-opacity:0;paint-order:stroke fill markers"
         id="ellipse24"
         cx="93.943794"
         cy="148.5"
         rx="59.440304"
         ry="59.313801" /></mask><mask
       maskUnits="userSpaceOnUse"
       id="mask26"><ellipse
         style="display:inline;fill:#ffffff;fill-opacity:1;stroke:none;stroke-width:0.0378694;stroke-linecap:round;stroke-linejoin:round;stroke-miterlimit:5.7;stroke-dasharray:none;stroke-opacity:0;paint-order:stroke fill markers"
         id="ellipse26"
         cx="51.682934"
         cy="162.97403"
         rx="33.066635"
         ry="29.505428" /></mask><radialGradient
       inkscape:collect="always"
       xlink:href="#linearGradient3"
       id="radialGradient4"
       cx="52.116859"
       cy="-80.370697"
       fx="52.116859"
       fy="-80.370697"
       r="43.153339"
       gradientTransform="matrix(0.8302931,0.01816847,-0.01039338,0.47496517,1.7424153,191.8556)"
       gradientUnits="userSpaceOnUse" /><mask
       maskUnits="userSpaceOnUse"
       id="mask4"><path
         id="path4"
         style="font-style:normal;font-variant:normal;font-weight:normal;font-stretch:normal;font-size:18.1641px;line-height:0;font-family:'Kirby Classic';-inkscape-font-specification:'Kirby Classic';text-align:center;letter-spacing:-1.82297px;text-anchor:middle;display:inline;fill:#ffffff;fill-opacity:1;stroke:none;stroke-width:0.499999;stroke-linecap:round;stroke-linejoin:round;stroke-miterlimit:5.7;stroke-dasharray:none;stroke-opacity:1"
         d="m 57.825955,2.8122692 c -0.283517,-0.024088 -0.559552,0.03869 -0.828889,0.1886191 -0.344152,0.1915753 -0.571122,0.4797031 -0.680578,0.8640299 -0.109458,0.3843266 -0.07362,0.7660582 0.108003,1.1451498 0.184941,0.3674454 0.463886,0.6480273 0.836642,0.8423259 l 0.172082,0.049093 -2.539381,9.4567881 c -0.112773,0.395972 -0.06139,0.769041 0.15348,1.119828 0.226515,0.354103 0.572328,0.597512 1.03818,0.730188 0.384326,0.109458 0.744731,0.06133 1.080553,-0.145211 0.347472,-0.203222 0.53349,-0.502754 0.558107,-0.898653 l 1.035079,-3.634404 c 0.203094,0.04452 0.400764,0.07377 0.597895,0.101286 l 1.370459,5.785694 c 0.160028,0.410713 0.399802,0.718617 0.719336,0.922941 0.331182,0.20764 0.725948,0.256815 1.184942,0.148311 0.372531,-0.07017 0.666292,-0.282179 0.880565,-0.636654 0.214276,-0.354474 0.25523,-0.720654 0.123508,-1.098124 l -1.189075,-5.45238 c 0.285239,-0.121983 0.558848,-0.261325 0.807702,-0.435633 0.420589,-0.283124 0.754414,-0.571991 1.002006,-0.866613 0.250909,-0.306269 0.461068,-0.623945 0.630454,-0.953431 C 65.360092,8.8706939 65.402608,7.7493461 65.014147,6.6818005 64.795815,6.1663448 64.472516,5.7091527 64.044698,5.3103079 63.628527,4.9147804 63.281306,4.6522669 63.003417,4.5227592 62.728845,4.3816053 62.498843,4.2848914 62.312505,4.231821 l -4.20026,-1.366325 c -0.09608,-0.027364 -0.191784,-0.045197 -0.28629,-0.053227 z m -12.221993,0.542086 -1.358572,5.1325031 -5.304068,0.3033406 4.464844,2.8804451 -1.350307,5.123202 4.124812,-3.363102 4.490683,2.870109 -1.934765,-4.9351 4.106727,-3.371371 -5.295286,0.3033405 z m 14.801683,3.3935911 0.94361,0.2687174 c 0.362731,0.1410796 0.669814,0.4554276 0.92139,0.9425782 l 0.01963,0.062528 c 0.01333,0.041573 0.01691,0.1179933 0.01035,0.2294435 -0.0032,0.099804 -0.02294,0.2134724 -0.05943,0.3415813 l -0.09457,0.3322794 c -0.01497,0.00833 -0.06509,0.050538 -0.149862,0.127124 -0.08477,0.076586 -0.17489,0.1515237 -0.271301,0.2247924 -0.0931,0.061622 -0.239715,0.1333021 -0.439251,0.214974 -0.196218,0.070026 -0.405111,0.1174901 -0.626319,0.1426271 -0.20624,0.016806 -0.47275,0.0037 -0.800468,-0.039274 -0.08135,-0.010668 -0.167436,-0.032065 -0.251148,-0.048059 z M 30.258131,6.8502657 c -0.233775,-0.00674 -0.470472,0.032523 -0.710036,0.1178224 -0.410681,0.1462267 -0.724704,0.4191101 -0.942578,0.8180377 -0.206465,0.394866 -0.228621,0.8206115 -0.06615,1.2769247 l 2.961057,8.3157725 c -0.43829,-0.09641 -0.82787,-0.0546 -1.164785,0.136426 l -1.959568,1.111043 -4.076236,-7.189742 c -0.209039,-0.368691 -0.552114,-0.605308 -1.029394,-0.710552 -0.483253,-0.115776 -0.946116,-0.04828 -1.388546,0.202573 -0.379225,0.215012 -0.641393,0.537834 -0.787032,0.968416 -0.135105,0.42461 -0.08336,0.847295 0.155546,1.268657 l 4.882389,8.611877 c 0.20904,0.368691 0.544989,0.616936 1.007174,0.744657 0.472718,0.121749 0.887762,0.08111 1.245918,-0.121956 l 3.41323,-1.935282 c 0.452964,-0.25682 0.76028,-0.598206 0.922425,-1.024227 0.01669,-0.04429 0.02212,-0.08852 0.03462,-0.132809 0.431983,0.18822 0.837322,0.218344 1.21543,0.08372 l 3.696414,-1.316199 c 0.490538,-0.17466 0.85238,-0.457978 1.085721,-0.84956 0.240691,-0.407052 0.275503,-0.849989 0.104904,-1.329118 -0.138104,-0.387866 -0.429289,-0.682559 -0.873847,-0.884184 -0.444561,-0.201625 -0.860636,-0.233188 -1.248505,-0.09508 L 34.614448,15.672992 31.842009,7.8869029 C 31.699848,7.487621 31.403015,7.1950681 30.951112,7.0089125 30.723128,6.9101306 30.491904,6.857007 30.258131,6.8502657 Z m 42.568977,3.1476114 c -0.146421,-0.00254 -0.280141,0.00921 -0.401527,0.035657 -0.226171,0.04867 -0.457716,0.129787 -0.694015,0.242879 -0.225888,0.119281 -0.379185,0.211249 -0.45992,0.275952 -0.06414,0.06048 -0.113665,0.108215 -0.148828,0.143661 l -4.106209,4.595586 C 66.6208,14.985838 66.248238,14.771446 65.89885,14.64824 c -0.338981,-0.117017 -0.605523,-0.141651 -0.800468,-0.07441 -0.188759,0.05683 -0.36295,0.136345 -0.522451,0.238745 -0.15331,0.09199 -0.24529,0.199293 -0.27595,0.321945 -0.03488,0.106054 -0.0629,0.152937 -0.08372,0.140559 -0.156964,0.216612 -0.234942,0.430512 -0.234093,0.642339 7.94e-4,0.211826 0.04192,0.391345 0.123505,0.538468 0.09818,0.142903 0.223496,0.287759 0.37569,0.434599 0.158379,0.136431 0.268793,0.223318 0.331245,0.260449 l 0.171566,0.102319 -0.738457,0.744141 c -0.167656,0.139815 -0.278932,0.292017 -0.334346,0.456303 -0.04501,0.170474 -0.07793,0.320228 -0.09819,0.449068 -0.0098,0.135029 0.0075,0.271862 0.05168,0.410828 0.06077,0.134746 0.115194,0.244741 0.163298,0.329695 0.04811,0.08496 0.113004,0.165332 0.194305,0.241846 0.08552,0.09311 0.140843,0.154477 0.16588,0.183451 0.02503,0.02897 0.04791,0.04963 0.06873,0.06201 0.252341,0.262737 0.500904,0.424439 0.746207,0.485759 0.245303,0.06132 0.440574,0.10024 0.58601,0.116271 0.162036,0.01181 0.311838,-0.02643 0.448553,-0.114204 0.147122,-0.08158 0.238205,-0.139738 0.273368,-0.175184 0.04557,-0.02926 0.07755,-0.05972 0.09612,-0.09095 l 1.122929,-1.212846 1.502233,0.956531 c -0.28439,0.549404 -0.407713,1.123893 -0.370004,1.723926 -0.01349,0.259649 0.04248,0.497137 0.167949,0.712618 0.125468,0.21548 0.26805,0.377883 0.428398,0.487308 0.160348,0.109426 0.346514,0.198958 0.558622,0.268718 0.20592,0.08017 0.346335,0.12838 0.421164,0.144694 0.08524,0.0225 0.15476,0.03585 0.208772,0.03979 0.133274,0.0069 0.261721,-0.0111 0.385506,-0.05064 0.0024,0.118683 0.01238,0.242321 0.04082,0.377755 0.08205,0.309226 0.245581,0.614707 0.490411,0.917256 l 0.293004,0.222209 c 0.178118,0.147638 0.459836,0.210357 0.845426,0.189136 0.394253,-0.02969 0.794478,-0.217409 1.20096,-0.56379 l 3.592031,-2.925403 -2.25516,2.83807 -0.130742,0.204121 c -0.08721,0.136001 -0.10691,0.3496 -0.05891,0.641305 0.05666,0.283242 0.229026,0.572131 0.516763,0.866614 l 0.203089,0.207739 c 0.126743,0.147044 0.348377,0.22703 0.665075,0.239262 0.32516,0.02088 0.686308,-0.09497 1.083138,-0.347266 l 2.502173,-1.987475 -3.385323,3.917074 -0.09198,0.16588 c -0.06103,0.09349 -0.113435,0.221258 -0.158131,0.38344 -0.03623,0.170844 -0.04304,0.354679 -0.01963,0.551904 0.01474,0.205688 0.09392,0.408067 0.237197,0.606682 0.143271,0.198612 0.372385,0.380902 0.687294,0.547254 l 0.114724,0.09147 c 0.08502,0.05236 0.204396,0.09626 0.358116,0.132291 0.15372,0.03603 0.320326,0.05092 0.500229,0.04444 0.197025,-0.0063 0.407604,-0.08514 0.632002,-0.236678 0.241523,-0.151339 0.475264,-0.371377 0.701249,-0.659908 l 0.641821,-0.848008 c -0.0067,0.04199 -0.02008,0.08505 -0.02066,0.12609 0.01408,0.172807 0.05059,0.360693 0.109554,0.56379 0.06951,0.197144 0.122431,0.327393 0.158131,0.390673 l 0.09819,0.174149 -1.01079,0.278537 c -0.214995,0.03787 -0.387477,0.113986 -0.517282,0.228926 -0.123854,0.125489 -0.22684,0.239376 -0.308506,0.341066 -0.07572,0.112234 -0.128858,0.239366 -0.159682,0.381889 -0.01434,0.147117 -0.02167,0.269275 -0.02223,0.366901 -5.29e-4,0.09763 0.01508,0.200136 0.04754,0.306959 0.02786,0.123317 0.04541,0.203737 0.05271,0.241329 0.0073,0.03759 0.01704,0.06676 0.02894,0.08785 0.08818,0.353457 0.223377,0.617998 0.405659,0.793232 0.182282,0.175236 0.332433,0.305961 0.450617,0.392226 0.134681,0.09086 0.283192,0.132144 0.445453,0.124023 0.168211,0.0024 0.276389,-0.0028 0.324527,-0.01601 0.05409,-0.0027 0.09703,-0.01315 0.128675,-0.03101 l 1.577681,-0.493509 0.827339,1.577163 c -0.520036,0.335092 -0.912921,0.772287 -1.17874,1.311548 -0.140888,0.218519 -0.21092,0.452424 -0.209288,0.701767 0.0016,0.249341 0.04505,0.46092 0.129707,0.635619 0.08465,0.174699 0.201596,0.345554 0.350885,0.511596 0.138739,0.171992 0.236728,0.283485 0.293521,0.334865 0.06274,0.06193 0.116337,0.108206 0.161229,0.138493 0.218519,0.140888 0.465492,0.195911 0.740524,0.165881 0.275034,-0.03003 0.523176,-0.107077 0.744659,-0.232027 0.22148,-0.124952 0.44377,-0.285573 0.667141,-0.481108 0.239869,-0.190939 0.398352,-0.328739 0.475425,-0.41393 0.08762,-0.09114 0.151918,-0.162062 0.192752,-0.212905 0.691747,-0.696131 2.823405,-2.573213 6.395476,-5.63118 0.282054,-0.214738 0.487315,-0.455781 0.61495,-0.722439 0.133583,-0.256109 0.194794,-0.492133 0.183967,-0.708483 -0.01082,-0.216347 -0.04047,-0.429157 -0.08888,-0.638204 -0.03192,-0.204449 -0.08839,-0.353433 -0.168981,-0.447 -0.07464,-0.08302 -0.104027,-0.135684 -0.08888,-0.158131 -0.179856,-0.343448 -0.408049,-0.625081 -0.684713,-0.844394 -0.266118,-0.225261 -0.518088,-0.375198 -0.754994,-0.450099 -0.220408,-0.0703 -0.461195,-0.114897 -0.722437,-0.13436 -0.255291,-0.0089 -0.43366,-0.0056 -0.535884,0.01034 -0.08573,0.02056 -0.152884,0.03739 -0.20102,0.05064 l -5.848223,1.944066 c -0.191217,-0.462166 -0.407792,-0.833956 -0.649573,-1.114661 -0.235831,-0.270155 -0.454766,-0.424357 -0.657323,-0.46302 -0.192011,-0.04461 -0.382754,-0.06218 -0.572058,-0.05271 -0.178758,0.0035 -0.311841,0.05097 -0.39946,0.142111 -0.08302,0.07464 -0.130728,0.101192 -0.142627,0.0801 -0.01791,0.0081 -0.02883,0.01995 -0.04599,0.02842 l 5.015714,-6.62647 0.07855,-0.127124 c 0.06083,-0.07636 0.109178,-0.191479 0.145212,-0.345199 0.0445,-0.145058 0.07204,-0.307604 0.08268,-0.487308 0.01064,-0.179704 -0.03813,-0.385585 -0.146759,-0.61805 -0.10863,-0.232465 -0.277537,-0.448416 -0.506431,-0.648022 l -0.216532,-0.144181 c -0.144465,-0.09587 -0.38345,-0.149833 -0.71727,-0.162263 -0.316698,-0.01223 -0.660175,0.06941 -1.030428,0.244945 l -3.470589,2.400371 2.145088,-3.315044 0.07855,-0.12764 c 0.05236,-0.08502 0.092,-0.199942 0.119375,-0.345199 0.03603,-0.15372 0.05092,-0.320326 0.04444,-0.500227 0.0021,-0.171241 -0.06009,-0.364788 -0.186036,-0.580326 -0.117488,-0.206879 -0.294711,-0.40572 -0.532268,-0.596863 l -0.08888,-0.09095 c -0.07636,-0.06083 -0.195935,-0.11395 -0.358119,-0.158645 -0.153522,-0.05316 -0.336918,-0.08508 -0.550871,-0.09612 -0.213952,-0.01104 -0.493088,0.04991 -0.837157,0.182935 -0.335608,0.141686 -0.693415,0.347397 -1.07332,0.617018 L 72.4442,21.345518 c 5.29e-4,-0.0026 0.0041,-0.01091 0.0047,-0.01344 0.03066,-0.122652 0.05137,-0.216183 0.06149,-0.280603 0.25372,-0.948019 1.168887,-3.636873 2.746087,-8.066691 0.137834,-0.326604 0.196098,-0.637431 0.174148,-0.932243 -0.01154,-0.288623 -0.07624,-0.524131 -0.193267,-0.706417 -0.117031,-0.182286 -0.24829,-0.351764 -0.394293,-0.509013 -0.129408,-0.161469 -0.252508,-0.262789 -0.368969,-0.303858 -0.106056,-0.03488 -0.158033,-0.06601 -0.156065,-0.09302 -0.326884,-0.208442 -0.664784,-0.33911 -1.013891,-0.391707 -0.171458,-0.0315 -0.330552,-0.04811 -0.476972,-0.050643 z m -1.061435,4.0597019 -1.247468,3.485058 -1.087273,-0.731221 0.0186,-0.03101 z m -53.432397,0.664559 c -1.041369,-0.04268 -1.954766,0.287575 -2.739884,0.99012 -0.404812,0.291498 -0.752489,0.693814 -1.04283,1.207162 -0.290342,0.513347 -0.487669,1.049615 -0.592212,1.609204 -0.03954,1.953756 0.612483,3.694749 1.955953,5.22242 0.499415,0.641237 1.013458,1.188968 1.542024,1.64331 0.52057,0.445249 1.000523,0.789297 1.439706,1.031979 0.431186,0.233589 0.875171,0.399163 1.332218,0.497127 0.457048,0.09796 0.853139,0.144815 1.188041,0.14056 0.326906,-0.01336 0.673679,-0.06824 1.040247,-0.164849 0.358571,-0.105698 0.634837,-0.204075 0.829407,-0.294555 0.19457,-0.09048 0.407777,-0.196893 0.63872,-0.31936 0.494649,-0.354376 0.922231,-0.803029 1.283126,-1.346171 0.368892,-0.534049 0.605038,-1.07239 0.708484,-1.614888 0.09294,-0.646136 5.82e-4,-1.347007 -0.276986,-2.102714 -0.285562,-0.764801 -0.593135,-1.389329 -0.922424,-1.873788 -0.329289,-0.484458 -0.759928,-1.057204 -1.292427,-1.717725 -1.167862,-1.456343 -2.503513,-2.369893 -4.006991,-2.740917 -0.375595,-0.09703 -0.737049,-0.152689 -1.084172,-0.166915 z m 0.108004,3.341398 c 0.241181,-0.01456 0.508455,0.03461 0.801502,0.147794 0.586093,0.226367 1.202334,0.716549 1.848982,1.470195 1.47142,1.673163 1.794292,2.864869 0.9679,3.575492 -0.853672,0.734614 -2.02562,0.209246 -3.515548,-1.576648 -0.832768,-0.928611 -1.195494,-1.827135 -1.088305,-2.695442 0.01283,-0.333806 0.126178,-0.5627 0.340031,-0.686263 0.189314,-0.142299 0.404258,-0.220571 0.645438,-0.235128 z m -8.815482,4.735628 c -0.5578406,0.04667 -1.0926871,0.210915 -1.6050707,0.492993 -0.5055994,0.272047 -0.8635994,0.51999 -1.0733193,0.743624 -0.2197507,0.21685 -0.3834178,0.405365 -0.4919596,0.565857 l -2.6086263,3.564639 c -0.223868,0.331018 -0.296517,0.698709 -0.2185914,1.102259 0.074679,0.386737 0.2772161,0.691838 0.6082316,0.915707 0.3310154,0.223867 0.7050662,0.308576 1.1218952,0.254249 0.4067985,-0.06111 0.7605668,-0.238191 1.061434,-0.531751 l 0.1002522,-0.147794 8.1927823,5.361429 c 0.341046,0.230651 0.711772,0.298863 1.112076,0.204121 0.407089,-0.10477 0.746671,-0.357894 1.018026,-0.759127 0.223868,-0.331015 0.289931,-0.688279 0.198438,-1.071768 -0.08471,-0.393521 -0.31159,-0.663935 -0.680062,-0.810803 l -3.130042,-2.116667 c 0.105639,-0.179048 0.195039,-0.357714 0.28267,-0.536403 l 5.924703,0.502296 c 0.440138,-0.02395 0.807432,-0.155972 1.101225,-0.39584 0.300577,-0.249899 0.471013,-0.609582 0.51108,-1.079522 0.04952,-0.375835 -0.06077,-0.720934 -0.330729,-1.035079 -0.269961,-0.314145 -0.604866,-0.467341 -1.00459,-0.45992 l -5.551599,-0.570507 c -0.02692,-0.309185 -0.07372,-0.612386 -0.161747,-0.903305 -0.13782,-0.487915 -0.308378,-0.895532 -0.51108,-1.222664 -0.212733,-0.333916 -0.448781,-0.632885 -0.709001,-0.896586 -0.968577,-0.815862 -2.020945,-1.205556 -3.156396,-1.169438 z m 0.358117,3.004985 0.06563,5.29e-4 c 0.04366,2.91e-4 0.117331,0.02102 0.221175,0.06201 0.09381,0.03421 0.195587,0.08868 0.305925,0.163298 l 0.286287,0.193269 c 0.0032,0.01682 0.02757,0.07748 0.0739,0.181901 0.04633,0.104424 0.08965,0.213689 0.129191,0.328146 0.02951,0.107672 0.05182,0.269155 0.06718,0.484208 0.0053,0.20827 -0.01432,0.421227 -0.05943,0.639236 -0.04836,0.201197 -0.144279,0.450826 -0.287321,0.748792 -0.03544,0.07382 -0.08281,0.148839 -0.124023,0.223242 L 8.251721,27.197875 8.8010415,26.385521 C 9.0482179,26.084888 9.4426,25.891248 9.983915,25.804162 Z m 78.07172,5.050337 -2.815849,2.401922 -0.579292,-1.174607 0.03152,-0.0181 z" /></mask><mask
       maskUnits="userSpaceOnUse"
       id="mask6"><path
         id="path6"
         style="font-style:normal;font-variant:normal;font-weight:normal;font-stretch:normal;font-size:18.1641px;line-height:0;font-family:'Kirby Classic';-inkscape-font-specification:'Kirby Classic';text-align:center;letter-spacing:-1.82297px;text-anchor:middle;display:inline;fill:#ffffff;fill-opacity:1;stroke:#000000;stroke-width:0.499999;stroke-linecap:round;stroke-linejoin:round;stroke-miterlimit:5.7;stroke-dasharray:none;stroke-opacity:1"
         d="m 57.858873,2.7922077 c -0.283519,-0.024088 -0.559554,0.03869 -0.828892,0.188619 -0.344151,0.1915753 -0.571119,0.4797031 -0.680577,0.86403 -0.109458,0.3843266 -0.07362,0.7660582 0.108003,1.1451497 0.184941,0.3674454 0.463886,0.6480273 0.836642,0.8423259 l 0.172082,0.049092 -2.539381,9.4567877 c -0.112773,0.395972 -0.06139,0.769041 0.153482,1.119829 0.226513,0.354103 0.572326,0.597512 1.038178,0.730187 0.384328,0.109458 0.74473,0.06133 1.080553,-0.145211 0.347472,-0.203222 0.53349,-0.502753 0.558106,-0.898653 l 1.03508,-3.634404 c 0.203094,0.04452 0.400764,0.07377 0.597897,0.101287 l 1.370457,5.785694 c 0.160028,0.410713 0.399801,0.718616 0.719336,0.922941 0.331184,0.20764 0.725948,0.256814 1.184942,0.14831 0.37253,-0.07017 0.666292,-0.282178 0.880565,-0.636653 0.214275,-0.354475 0.25523,-0.720655 0.123507,-1.098124 l -1.189074,-5.452381 c 0.285239,-0.121983 0.558847,-0.261325 0.807701,-0.435633 0.42059,-0.283124 0.754415,-0.57199 1.002006,-0.866612 0.25091,-0.306269 0.461069,-0.623945 0.630455,-0.95343 C 65.393008,8.8506323 65.435524,7.7292845 65.047065,6.6617389 64.828731,6.1462832 64.505431,5.6890912 64.077613,5.2902463 63.661442,4.8947189 63.314222,4.6322054 63.036335,4.5026976 62.761761,4.3615438 62.531759,4.2648298 62.345421,4.2117594 L 58.14516,2.8454345 c -0.09608,-0.027364 -0.191783,-0.045198 -0.286287,-0.053227 z m -12.221993,0.5420858 -1.358575,5.1325033 -5.304067,0.3033406 4.464844,2.8804436 -1.350307,5.123202 4.124812,-3.363102 4.490683,2.870109 -1.934766,-4.9351 4.106728,-3.3713696 -5.295286,0.3033406 z m 14.801681,3.3935913 0.94361,0.2687174 c 0.36273,0.1410795 0.669816,0.4554276 0.92139,0.9425781 l 0.01963,0.062528 c 0.01333,0.041573 0.01691,0.1179933 0.01034,0.2294435 -0.0033,0.099804 -0.02294,0.2134721 -0.05943,0.341581 l -0.09457,0.3322796 c -0.01498,0.00833 -0.0651,0.050538 -0.149863,0.1271241 -0.08477,0.076586 -0.174889,0.1515237 -0.271301,0.2247924 -0.0931,0.061622 -0.239718,0.1333021 -0.439251,0.214974 C 61.122899,9.5419289 60.914002,9.589393 60.692797,9.61453 60.486557,9.631336 60.220048,9.61823 59.89233,9.575256 59.81098,9.564588 59.724893,9.543191 59.641182,9.527197 Z M 30.291047,6.8302042 c -0.233776,-0.00674 -0.470472,0.032523 -0.710036,0.1178224 -0.410681,0.1462267 -0.724704,0.41911 -0.942578,0.8180376 -0.206465,0.3948661 -0.228619,0.8206116 -0.06615,1.2769247 l 2.96106,8.3157721 c -0.43829,-0.09641 -0.82787,-0.0546 -1.164785,0.136425 l -1.959573,1.111043 -4.076236,-7.189742 c -0.209039,-0.368691 -0.552114,-0.605308 -1.029394,-0.710551 -0.483253,-0.115776 -0.946116,-0.04828 -1.388546,0.202572 -0.379225,0.215012 -0.641393,0.537834 -0.787032,0.968416 -0.135105,0.424611 -0.08336,0.847295 0.155546,1.268658 l 4.882389,8.611876 c 0.20904,0.368692 0.54499,0.616937 1.007174,0.744658 0.47272,0.121748 0.887762,0.08111 1.24592,-0.121956 l 3.413228,-1.935283 c 0.452964,-0.256819 0.760278,-0.598206 0.922422,-1.024226 0.0167,-0.04429 0.02212,-0.08852 0.03462,-0.13281 0.431985,0.18822 0.837324,0.218345 1.215429,0.08372 l 3.696417,-1.316199 c 0.490535,-0.174659 0.85238,-0.457977 1.085721,-0.849559 0.240689,-0.407053 0.275503,-0.849989 0.104904,-1.329119 -0.138104,-0.387866 -0.429291,-0.682559 -0.873849,-0.884183 -0.444559,-0.201626 -0.860637,-0.233189 -1.248503,-0.09509 L 34.647369,15.652921 31.87493,7.8668335 C 31.732764,7.4675592 31.435933,7.1750065 30.984027,6.988851 30.756044,6.890069 30.524819,6.8369455 30.291047,6.8302042 Z m 42.568976,3.1476113 c -0.14642,-0.00254 -0.280141,0.00921 -0.401526,0.035656 -0.226171,0.04867 -0.457716,0.129787 -0.694013,0.242879 -0.225888,0.119281 -0.379185,0.21125 -0.459922,0.275952 -0.06414,0.06048 -0.113665,0.108215 -0.148826,0.143661 l -4.106209,4.595585 c -0.395811,-0.305774 -0.768374,-0.520166 -1.117761,-0.643372 -0.338982,-0.117017 -0.605523,-0.141651 -0.800468,-0.07441 -0.188759,0.05683 -0.36295,0.136345 -0.522449,0.238745 -0.153313,0.09199 -0.245292,0.199293 -0.275952,0.321944 -0.03488,0.106055 -0.0629,0.152937 -0.08372,0.140559 -0.156967,0.216612 -0.234942,0.430512 -0.234093,0.642339 7.94e-4,0.211826 0.04192,0.391345 0.123505,0.538469 0.09818,0.142903 0.223496,0.287759 0.375687,0.434599 0.15838,0.13643 0.268796,0.223317 0.331248,0.260449 l 0.171566,0.102318 -0.738457,0.744142 c -0.167659,0.139814 -0.278932,0.292016 -0.334346,0.456302 -0.04501,0.170475 -0.07794,0.320228 -0.09819,0.449068 -0.0098,0.135029 0.0075,0.271862 0.05168,0.410828 0.06077,0.134746 0.115194,0.244741 0.163298,0.329695 0.04811,0.08496 0.113003,0.165332 0.194305,0.241846 0.08552,0.09311 0.140843,0.154477 0.16588,0.183451 0.02503,0.02897 0.04791,0.04963 0.06873,0.06201 0.252341,0.262738 0.500904,0.424439 0.746207,0.48576 0.245303,0.06132 0.440574,0.10024 0.58601,0.11627 0.162036,0.01181 0.311838,-0.02643 0.448553,-0.114204 0.147122,-0.08158 0.238205,-0.139738 0.273368,-0.175184 0.04557,-0.02926 0.07755,-0.05972 0.09612,-0.09095 l 1.122928,-1.212846 1.502233,0.956532 c -0.28439,0.549403 -0.40771,1.123892 -0.370001,1.723925 -0.01349,0.259649 0.04248,0.497137 0.167947,0.712618 0.125468,0.21548 0.268049,0.377883 0.428397,0.487308 0.160351,0.109426 0.346514,0.198958 0.558623,0.268718 0.20592,0.08017 0.346334,0.128381 0.421164,0.144694 0.08523,0.0225 0.15476,0.03585 0.208772,0.03979 0.133273,0.0069 0.26172,-0.0111 0.385506,-0.05064 0.0024,0.118683 0.01238,0.242321 0.04083,0.377755 0.08205,0.309226 0.245581,0.614707 0.49041,0.917256 l 0.293005,0.222209 c 0.178115,0.147638 0.459835,0.210357 0.845426,0.189136 0.39425,-0.02968 0.794475,-0.217408 1.200959,-0.56379 l 3.592029,-2.925403 -2.25516,2.838071 -0.130739,0.204121 c -0.08721,0.136 -0.106913,0.349599 -0.05891,0.641305 0.05666,0.283241 0.229026,0.57213 0.516763,0.866613 l 0.203089,0.207739 c 0.126746,0.147043 0.348379,0.22703 0.665075,0.239263 0.32516,0.02089 0.686308,-0.09497 1.083138,-0.347267 l 2.502175,-1.987474 -3.385325,3.917072 -0.09198,0.165884 c -0.06103,0.09349 -0.113435,0.221256 -0.158131,0.383437 -0.03623,0.170844 -0.04304,0.354679 -0.01963,0.551905 0.01474,0.205687 0.09392,0.40807 0.237196,0.606682 0.143272,0.198615 0.372385,0.380905 0.687295,0.547253 l 0.114723,0.09147 c 0.08502,0.05236 0.204396,0.09626 0.358116,0.132291 0.153721,0.03604 0.320326,0.05092 0.50023,0.04444 0.197024,-0.0063 0.407603,-0.08514 0.632002,-0.236678 0.241522,-0.151339 0.475263,-0.371377 0.701249,-0.659908 l 0.641821,-0.848011 c -0.0067,0.04199 -0.02008,0.08505 -0.02066,0.126093 0.01408,0.172807 0.05059,0.360693 0.109553,0.563787 0.06951,0.197146 0.122431,0.327395 0.158128,0.390673 l 0.09819,0.174152 -1.010793,0.278534 c -0.214992,0.03787 -0.387474,0.113988 -0.517279,0.228929 -0.123856,0.125486 -0.22684,0.239376 -0.308509,0.341063 -0.07572,0.112234 -0.128855,0.239366 -0.159679,0.381889 -0.01431,0.147119 -0.0217,0.269275 -0.02223,0.366903 -5.29e-4,0.09763 0.01508,0.200136 0.04754,0.306957 0.02786,0.123319 0.04541,0.203739 0.05271,0.241329 0.0073,0.03759 0.01704,0.06676 0.02894,0.08785 0.08818,0.353457 0.22338,0.617998 0.405662,0.793234 0.182279,0.175237 0.332433,0.305959 0.450617,0.392227 0.134681,0.09086 0.283189,0.13214 0.44545,0.12402 0.168214,0.0024 0.276391,-0.0028 0.32453,-0.01601 0.05409,-0.0027 0.09703,-0.01315 0.128675,-0.03101 l 1.577681,-0.493509 0.827339,1.577163 c -0.520036,0.335092 -0.912924,0.772287 -1.17874,1.311547 -0.140888,0.21852 -0.210923,0.452424 -0.209288,0.701768 0.0016,0.24934 0.04505,0.46092 0.129706,0.635619 0.08465,0.174699 0.201597,0.345556 0.350883,0.511598 0.138742,0.17199 0.236728,0.283483 0.293523,0.334862 0.06274,0.06193 0.116338,0.108207 0.16123,0.138494 0.218519,0.140888 0.465492,0.19591 0.740523,0.16588 0.275032,-0.03003 0.523177,-0.107077 0.744657,-0.232026 0.221483,-0.124952 0.44377,-0.285573 0.667144,-0.481108 0.239869,-0.190939 0.398351,-0.328736 0.475422,-0.41393 0.08762,-0.09114 0.151921,-0.162063 0.192754,-0.212905 0.691748,-0.696131 2.823406,-2.573213 6.395474,-5.63118 0.282057,-0.214738 0.487315,-0.455782 0.61495,-0.722437 0.133586,-0.256111 0.194794,-0.492135 0.18397,-0.708484 -0.01082,-0.216347 -0.04047,-0.429157 -0.08888,-0.638204 -0.03192,-0.204449 -0.08839,-0.353433 -0.168984,-0.447001 -0.07464,-0.08302 -0.104026,-0.135683 -0.08888,-0.15813 -0.179855,-0.343448 -0.408048,-0.625081 -0.684712,-0.844394 -0.266118,-0.225261 -0.518089,-0.375199 -0.754994,-0.4501 -0.220408,-0.07031 -0.461195,-0.114898 -0.722437,-0.13436 -0.255291,-0.0089 -0.43366,-0.0056 -0.535884,0.01035 -0.08573,0.02056 -0.152884,0.03739 -0.20102,0.05064 l -5.848223,1.944068 c -0.191217,-0.462169 -0.407792,-0.833959 -0.649573,-1.114661 -0.235831,-0.270158 -0.454766,-0.424357 -0.657323,-0.46302 -0.192011,-0.04461 -0.382754,-0.06218 -0.572059,-0.05271 -0.178757,0.0035 -0.31184,0.05097 -0.399459,0.142111 -0.08302,0.07464 -0.130726,0.10119 -0.142627,0.0801 -0.01791,0.0081 -0.02883,0.01995 -0.04599,0.02842 l 5.015714,-6.626468 0.07855,-0.127124 c 0.06083,-0.07636 0.109178,-0.191479 0.145212,-0.345199 0.0445,-0.145059 0.07203,-0.307605 0.08268,-0.487309 0.01064,-0.179703 -0.03813,-0.385584 -0.146762,-0.61805 -0.108627,-0.232466 -0.277534,-0.448416 -0.506428,-0.648022 l -0.216525,-0.144177 c -0.144465,-0.09587 -0.383447,-0.149834 -0.717269,-0.162264 -0.316698,-0.01223 -0.660175,0.06941 -1.030428,0.244946 l -3.47059,2.400369 2.145089,-3.315044 0.07855,-0.127639 c 0.05236,-0.08503 0.092,-0.199941 0.119372,-0.3452 0.03603,-0.15372 0.05092,-0.320325 0.04444,-0.500226 0.0019,-0.171241 -0.06008,-0.364789 -0.186036,-0.580326 -0.117486,-0.206879 -0.294712,-0.40572 -0.532268,-0.596863 l -0.08888,-0.09095 c -0.07636,-0.06083 -0.195935,-0.113951 -0.358119,-0.158646 -0.153522,-0.05316 -0.336918,-0.08508 -0.550871,-0.09612 -0.213952,-0.01104 -0.493088,0.04991 -0.837157,0.182935 -0.335608,0.141686 -0.693415,0.347396 -1.07332,0.617017 l -6.406329,4.687052 c 5.29e-4,-0.0026 0.0041,-0.0109 0.0047,-0.01344 0.03066,-0.122652 0.05137,-0.216183 0.0615,-0.280603 0.25372,-0.948019 1.168885,-3.636873 2.746084,-8.066691 0.137835,-0.326604 0.196099,-0.637431 0.174149,-0.932243 -0.01154,-0.288623 -0.07624,-0.524131 -0.193267,-0.706417 -0.117031,-0.182286 -0.248288,-0.351764 -0.394293,-0.509013 -0.129405,-0.161468 -0.252505,-0.262788 -0.368969,-0.303857 -0.106056,-0.03488 -0.158031,-0.06601 -0.156062,-0.09302 -0.326888,-0.208442 -0.664787,-0.33911 -1.013892,-0.391707 -0.17146,-0.031503 -0.330554,-0.048114 -0.476975,-0.050643 z m -1.061434,4.0597005 -1.247468,3.485058 -1.087271,-0.731221 0.0186,-0.03101 z m -53.432397,0.664559 c -1.041369,-0.04268 -1.954766,0.287575 -2.739884,0.99012 -0.404812,0.291498 -0.752489,0.693814 -1.04283,1.207162 -0.290342,0.513347 -0.487669,1.049615 -0.592212,1.609204 -0.03954,1.953756 0.612483,3.694749 1.955953,5.222421 0.499415,0.641236 1.013458,1.188967 1.542024,1.643309 0.52057,0.445249 1.000523,0.789298 1.439706,1.031979 0.431186,0.233589 0.875171,0.399164 1.332218,0.497127 0.457048,0.09796 0.853139,0.144816 1.188041,0.140561 0.326906,-0.01335 0.673679,-0.06824 1.040247,-0.164849 0.358571,-0.105699 0.634837,-0.204076 0.829407,-0.294555 0.19457,-0.09048 0.407777,-0.196894 0.63872,-0.31936 0.494649,-0.354376 0.922231,-0.80303 1.283126,-1.346172 0.368892,-0.534049 0.605038,-1.072389 0.708484,-1.614887 0.09294,-0.646136 5.82e-4,-1.347008 -0.276986,-2.102715 -0.285562,-0.7648 -0.593135,-1.389328 -0.922424,-1.873787 -0.329289,-0.484459 -0.759928,-1.057205 -1.292427,-1.717725 -1.167862,-1.456344 -2.503513,-2.369893 -4.006991,-2.740918 -0.375595,-0.09703 -0.737049,-0.152689 -1.084172,-0.166915 z m 0.108004,3.341398 c 0.241181,-0.01456 0.508455,0.03461 0.801502,0.147794 0.586093,0.226367 1.202334,0.716549 1.848982,1.470195 1.47142,1.673163 1.794292,2.86487 0.9679,3.575492 -0.853672,0.734615 -2.02562,0.209246 -3.515548,-1.576648 -0.832768,-0.928611 -1.195494,-1.827135 -1.088305,-2.695442 0.01283,-0.333806 0.126178,-0.5627 0.340031,-0.686263 0.189314,-0.142299 0.404258,-0.220571 0.645438,-0.235128 z m -8.8154825,4.735628 c -0.5578401,0.04667 -1.0926866,0.210915 -1.6050699,0.492993 -0.5055997,0.272048 -0.8635998,0.51999 -1.0733196,0.743624 -0.2197508,0.21685 -0.3834175,0.405365 -0.4919597,0.565857 l -2.6086263,3.56464 c -0.2238676,0.331017 -0.2965167,0.698706 -0.2185913,1.102259 0.074679,0.386737 0.2772161,0.691838 0.6082318,0.915707 0.3310155,0.223867 0.7050662,0.308573 1.1218953,0.254246 0.4067982,-0.06111 0.7605667,-0.238191 1.061434,-0.531749 l 0.1002522,-0.147796 8.192782,5.361432 c 0.341046,0.230651 0.711772,0.29886 1.112076,0.204121 0.407089,-0.10477 0.746671,-0.357897 1.018026,-0.759127 0.223868,-0.331015 0.289931,-0.688279 0.198438,-1.071769 -0.08471,-0.39352 -0.31159,-0.663934 -0.680062,-0.810805 L 13.264178,30.54607 c 0.105639,-0.179048 0.195039,-0.357714 0.28267,-0.536403 l 5.924703,0.502296 c 0.440138,-0.02395 0.807432,-0.155975 1.101225,-0.395841 0.300577,-0.249898 0.471013,-0.609581 0.51108,-1.079521 0.04952,-0.375838 -0.06077,-0.720934 -0.330729,-1.035079 -0.269961,-0.314145 -0.604866,-0.467341 -1.00459,-0.45992 L 14.196938,26.971093 C 14.170019,26.66191 14.12322,26.358708 14.035191,26.06779 13.897371,25.579875 13.726813,25.172257 13.524111,24.845125 13.311378,24.51121 13.07533,24.21224 12.81511,23.948539 11.846533,23.132677 10.794165,22.742983 9.6587135,22.779101 Z m 0.3581175,3.004985 0.06563,5.29e-4 c 0.04366,2.92e-4 0.117331,0.02102 0.221175,0.06201 0.09381,0.03421 0.195586,0.08867 0.305925,0.163298 l 0.286287,0.19327 c 0.0032,0.01681 0.02757,0.07748 0.0739,0.1819 0.04633,0.104426 0.08965,0.21369 0.129191,0.328146 0.02951,0.107673 0.05181,0.269155 0.06718,0.48421 0.0053,0.208267 -0.01432,0.421224 -0.05943,0.639236 -0.04836,0.201197 -0.144279,0.450826 -0.287321,0.748792 -0.03544,0.07382 -0.08281,0.148838 -0.124023,0.223242 L 8.2846372,27.177813 8.8339578,26.365458 c 0.2471761,-0.300633 0.6415579,-0.494273 1.1828732,-0.581359 z m 78.07172,5.050338 -2.815847,2.401919 -0.579294,-1.174604 0.03152,-0.0181 z"
         inkscape:label="path5" /></mask><mask
       maskUnits="userSpaceOnUse"
       id="mask10"><path
         style="opacity:1;fill:#ffffff;fill-opacity:1;stroke:none;stroke-width:0.499999;stroke-linecap:round;stroke-linejoin:round;stroke-miterlimit:5.7;stroke-dasharray:none;stroke-opacity:1"
         d="M 34.658909,3.1136886 40.15858,19.229005 51.989271,18.20581 53.588013,4.1368832 Z"
         id="path10" /></mask><filter
       inkscape:collect="always"
       style="color-interpolation-filters:sRGB"
       id="filter22"
       x="-0.1220752"
       y="-0.11941876"
       width="1.2441504"
       height="1.2388375"><feGaussianBlur
         inkscape:collect="always"
         stdDeviation="0.41356891"
         id="feGaussianBlur22" /></filter><filter
       inkscape:collect="always"
       style="color-interpolation-filters:sRGB"
       id="filter25"
       x="-0.40382599"
       y="-0.15648257"
       width="1.807652"
       height="1.3129651"><feGaussianBlur
         inkscape:collect="always"
         stdDeviation="0.70760233"
         id="feGaussianBlur25" /></filter><mask
       maskUnits="userSpaceOnUse"
       id="mask27"><ellipse
         style="fill:#ffffff;fill-opacity:1;stroke:none;stroke-width:0.0444212;stroke-linecap:round;stroke-linejoin:round;stroke-miterlimit:5.7;stroke-dasharray:none;stroke-opacity:0;paint-order:stroke fill markers"
         id="ellipse28"
         cx="61.255726"
         cy="-40.155548"
         rx="34.903484"
         ry="38.461582"
         inkscape:label="path23"
         transform="matrix(0.99178633,0.12790573,-0.10918574,0.99402136,0,0)" /></mask><mask
       maskUnits="userSpaceOnUse"
       id="mask28"><circle
         style="opacity:1;fill:#ffffff;fill-opacity:1;stroke:none;stroke-width:0.4;stroke-linecap:round;stroke-linejoin:round;stroke-miterlimit:5.7;stroke-dasharray:none;stroke-opacity:1"
         id="circle28"
         cx="6.8009138"
         cy="55.943989"
         r="4.481668" /></mask></defs><g
     inkscape:groupmode="layer"
     id="layer2"
     inkscape:label="circle"
     transform="rotate(48.504976,50.826849,53.873874)"><ellipse
       style="fill:#ffb7d3;fill-opacity:1;stroke:none;stroke-width:0.0444162;stroke-linecap:round;stroke-linejoin:round;stroke-miterlimit:5.7;stroke-dasharray:none;stroke-opacity:0;paint-order:stroke fill markers"
       id="path23"
       cx="53.462894"
       cy="-48.164238"
       rx="36.674221"
       ry="36.596169"
       inkscape:label="path23"
       transform="rotate(90.491241)" /><path
       style="display:inline;fill:#7b4366;fill-opacity:1;stroke-width:0.239961"
       d="m 91.553304,207.7708 c -2.626976,-0.11097 -6.070424,-0.52427 -8.761578,-1.05162 -1.798354,-0.35239 -5.484959,-1.27203 -5.738646,-1.43152 -0.128501,-0.0808 -0.125744,-0.0862 0.02458,-0.0486 0.09312,0.0233 0.56929,0.14252 1.058161,0.2649 3.380647,0.84629 6.819989,1.32031 11.004879,1.51673 2.150732,0.10094 2.373754,0.1261 2.929559,0.33051 0.33088,0.12168 0.902288,0.27555 1.269793,0.34192 l 0.668193,0.12068 -0.931183,-0.009 c -0.512149,-0.005 -1.197838,-0.0203 -1.523753,-0.034 z m -0.601033,-1.02777 c -0.476126,-0.3453 -0.873475,-0.82714 -1.125724,-1.36511 -0.194174,-0.41411 -0.219778,-0.57425 -0.217172,-1.35831 0.0027,-0.80568 0.189346,-1.84089 0.369273,-2.04791 0.028,-0.0322 0.488983,-0.005 1.024413,0.0615 4.379186,0.54015 10.048759,0.60182 14.721299,0.16012 0.7171,-0.0678 1.31758,-0.10948 1.3344,-0.0927 0.0168,0.0168 -0.0243,0.16187 -0.0913,0.32234 -0.18158,0.43457 -0.25527,1.27232 -0.14209,1.61526 0.0531,0.16079 0.17559,0.37726 0.27229,0.48105 0.0967,0.10379 0.16246,0.20076 0.14613,0.21549 -0.0644,0.0581 -2.47635,0.64837 -3.79673,0.92917 -3.679385,0.78251 -8.239209,1.31848 -11.216948,1.31848 -0.905934,0 -0.962208,-0.0105 -1.277819,-0.23943 z m 18.710309,-1.12146 c 0.69484,-0.23368 1.32339,-0.46273 1.39677,-0.50901 0.13388,-0.0844 0.0561,-0.0808 -1.17869,0.055 -0.57106,0.0628 -1.8027,-0.0967 -2.15382,-0.27903 -0.14233,-0.0739 -0.22069,-0.14576 -0.17413,-0.1597 4.31071,-1.29045 6.13776,-2.02732 11.72408,-4.72841 1.79233,-0.86663 3.22085,-1.54129 3.17448,-1.49925 -0.20168,0.18285 -2.84611,2.02596 -3.74947,2.6133 -2.19192,1.42512 -4.43223,2.63841 -6.3833,3.45702 -0.54484,0.2286 -0.97833,0.4279 -0.96333,0.44291 0.015,0.015 0.36554,-0.0489 0.77898,-0.14211 0.41343,-0.0932 0.84693,-0.18927 0.96332,-0.21357 0.1164,-0.0243 -0.35977,0.14727 -1.05816,0.38126 -1.17612,0.39405 -3.35997,1.01356 -3.55542,1.00859 -0.0466,-0.001 0.48385,-0.19334 1.17869,-0.42702 z m -35.429625,-1.30179 c -3.636617,-1.24089 -6.702684,-2.65042 -10.191852,-4.6854 -3.580307,-2.08813 -4.780477,-3.16992 -5.75219,-5.18479 -0.5794,-1.20139 -0.809655,-2.21508 -0.869132,-3.82631 -0.02707,-0.7333 -0.02256,-1.33328 0.01006,-1.33328 0.0326,0 0.885878,0.54696 1.896169,1.21546 3.795205,2.51126 7.816885,4.65856 11.910595,6.35944 0.744947,0.30951 1.382365,0.5901 1.41649,0.62354 0.03412,0.0334 0.024,0.2881 -0.02253,0.56592 -0.04651,0.27783 -0.08539,0.94322 -0.08641,1.47865 -0.0022,1.14068 0.176133,1.89961 0.665882,2.83449 0.345616,0.65974 1.237386,1.6189 1.913946,2.05859 0.540565,0.3513 0.401371,0.33469 -0.891033,-0.10631 z m 44.872695,-2.05909 c 1.29168,-0.89894 2.45947,-2.02257 3.22066,-3.09885 0.34828,-0.49245 0.65228,-0.89543 0.67556,-0.89551 0.0233,-9e-5 0.15774,0.19917 0.29881,0.44279 0.24508,0.42327 0.28059,0.44895 0.79911,0.57797 l 0.54263,0.13502 -0.58748,0.34056 c -1.68525,0.97695 -4.01168,2.18796 -4.82122,2.50966 -0.32394,0.12873 -0.32909,0.12826 -0.12807,-0.0116 z m -11.59564,-0.75251 c 0.39242,-0.69788 1.20699,-1.66992 2.48569,-2.96622 0.74044,-0.75063 1.06269,-1.1317 0.98066,-1.15962 -0.0672,-0.0229 -0.48408,-0.11812 -0.92639,-0.21165 -1.9943,-0.42175 -4.91964,-1.27154 -7.28015,-2.11484 -2.45774,-0.87803 -5.785547,-2.25955 -5.738176,-2.38217 0.08573,-0.22192 3.206656,-2.89353 5.105216,-4.37024 2.23415,-1.73772 5.32041,-3.8939 7.73893,-5.40671 l 1.05328,-0.65884 0.13186,0.20121 c 0.0725,0.11067 0.34359,0.48791 0.60237,0.83833 0.25879,0.35041 0.70673,0.97995 0.99542,1.39898 0.9436,1.36961 3.71785,5.20992 4.98732,6.9038 0.29015,0.38716 0.51871,0.711 0.50792,0.71966 -0.0108,0.009 -0.43867,0.27257 -0.95082,0.58647 -2.26727,1.38967 -6.47416,4.61499 -6.01949,4.61499 0.0183,0 0.71347,0.11087 1.54492,0.24636 2.60441,0.42443 3.30322,0.47319 6.78153,0.47319 1.78098,0 3.19045,0.0154 3.13216,0.0342 -0.0583,0.0188 -1.13452,0.39384 -2.39161,0.83336 -4.0224,1.40634 -7.20971,2.12795 -12.64648,2.86316 l -0.3718,0.0503 z m -20.020046,-0.0249 c -4.521029,-0.77014 -8.436151,-1.7911 -12.764636,-3.32871 l -1.929061,-0.68526 0.05346,-0.2591 c 0.159594,-0.77353 0.74537,-2.28597 1.362638,-3.51824 1.335412,-2.66593 3.369411,-5.47674 6.226561,-8.60458 0.567967,-0.62178 1.05621,-1.13051 1.084989,-1.13051 0.02878,0 0.621038,0.38579 1.316131,0.85729 3.917962,2.65771 8.68828,5.40264 12.579476,7.23847 l 1.411278,0.66582 -1.118787,1.14282 c -2.869234,2.93085 -4.733426,5.43632 -5.558515,7.47062 -0.190042,0.46856 -0.208709,0.48641 -0.499295,0.47769 -0.166029,-0.005 -1.139935,-0.15183 -2.164235,-0.32631 z m 35.043606,-4.21146 c -0.34169,-0.60874 -0.62686,-0.94998 -1.61035,-1.927 -0.65733,-0.65299 -1.52307,-1.6042 -1.92387,-2.11379 l -0.72873,-0.92654 0.29077,-0.19759 c 1.04681,-0.71132 5.56739,-3.02191 7.24956,-3.70543 0.41533,-0.16877 0.49238,-0.17953 0.49238,-0.0688 0,0.23706 -0.51284,2.33704 -0.7713,3.1583 -0.34712,1.103 -0.67399,1.94173 -1.16795,2.99688 -0.23036,0.49209 -0.44433,0.98098 -0.47547,1.0864 -0.14062,0.47603 -0.81994,2.31462 -0.87665,2.37264 -0.0347,0.0356 -0.25002,-0.26824 -0.47839,-0.6751 z m 0.89156,0.71375 c 0.0233,-0.0246 0.88039,-0.5 1.90469,-1.05646 5.19696,-2.82325 6.70634,-3.75785 8.91531,-5.52034 0.52686,-0.42036 0.97722,-0.7643 1.00081,-0.7643 0.18462,0 -1.73182,2.08321 -2.85265,3.10088 -2.11804,1.9231 -4.02347,2.90036 -7.57138,3.88321 -0.60527,0.16767 -1.17668,0.32666 -1.2698,0.3533 -0.0931,0.0267 -0.15026,0.0283 -0.12698,0.004 z m 1.99553,-2.23584 c 3.11848,-3.24813 5.02969,-5.56109 6.89303,-8.342 l 0.71955,-1.07388 0.80893,-0.003 c 0.99681,-0.004 1.77452,0.21825 2.14595,0.61357 l 0.24598,0.26181 -1.98137,1.95267 c -3.02687,2.98305 -5.46291,4.99472 -8.90376,7.35272 l -1.92788,1.32115 z m 10.3638,-5.76031 c 0,-0.0533 0.0356,-0.11884 0.0791,-0.14573 0.0435,-0.0269 0.19588,-0.3517 0.33861,-0.72181 0.27022,-0.70071 0.34478,-1.46137 0.17444,-1.77965 -0.0717,-0.13393 0.0253,-0.27628 0.61624,-0.90445 3.00435,-3.19369 6.77076,-8.36451 8.74095,-12.00027 0.40116,-0.74029 0.41229,-0.75202 0.4821,-0.50791 0.1149,0.40181 0.0869,1.57025 -0.0519,2.16899 -0.27422,1.18242 -0.79655,2.26782 -2.06367,4.28834 -1.86741,2.97774 -3.91329,5.48376 -6.54025,8.01126 -1.63438,1.5725 -1.7756,1.69905 -1.7756,1.59123 z m -79.4048,-1.61945 c -3.94888,-2.96292 -7.822087,-6.6037 -10.445852,-9.81901 l -0.499486,-0.6121 0.05133,-0.99085 c 0.263295,-5.08263 3.085134,-11.45796 7.90373,-17.85674 0.534189,-0.70937 1.003349,-1.3096 1.042578,-1.33385 0.03923,-0.0242 0.329099,0.30854 0.644153,0.73952 2.371658,3.24431 5.799394,7.22927 9.563435,11.11808 l 2.055026,2.12315 -0.777582,0.92435 c -4.639256,5.51496 -7.528214,10.75289 -8.307048,15.0614 -0.07575,0.41903 -0.164429,0.90023 -0.197071,1.06932 l -0.05935,0.30744 z m 70.04513,-0.45558 c 0.49278,-2.34454 0.85565,-5.96287 0.97417,-9.71392 0.0434,-1.3735 0.057,-2.86317 0.0302,-3.31039 l -0.0487,-0.81312 0.75242,-0.27254 c 4.19527,-1.51959 8.27376,-2.48567 11.31338,-2.67982 l 0.91053,-0.0582 -0.37271,1.04858 c -1.25963,3.54384 -3.22326,7.79872 -5.10826,11.06882 -0.89541,1.55335 -1.78599,2.98924 -1.90138,3.0656 -0.041,0.0271 -0.5016,0.11726 -1.02365,0.20035 -1.14316,0.18195 -3.44483,0.83214 -4.63245,1.30862 -0.47493,0.19054 -0.87926,0.34644 -0.89852,0.34644 -0.0192,0 -0.017,-0.0857 0.005,-0.19047 z m -80.256103,-4.3173 c -2.720804,-3.6779 -4.853959,-7.35158 -6.672715,-11.49164 -0.951556,-2.16603 -1.219612,-2.92108 -1.472615,-4.14799 -0.175464,-0.8509 -0.394735,-2.52471 -0.33815,-2.5813 0.01845,-0.0184 0.218592,0.3929 0.444768,0.91411 0.945134,2.17798 2.585078,5.13406 4.138973,7.46068 0.851086,1.27432 2.233996,3.17637 2.783483,3.82839 0.292222,0.34676 0.297928,0.36841 0.356863,1.35445 0.114176,1.91028 0.532111,3.50969 1.329144,5.08656 0.264749,0.5238 0.473832,0.95235 0.464625,0.95235 -0.0092,0 -0.474677,-0.61902 -1.034376,-1.37561 z m 33.781811,-0.86293 c -4.322374,-3.12424 -8.860054,-6.90113 -12.290482,-10.22986 -0.430672,-0.4179 -0.783041,-0.78785 -0.783041,-0.8221 0,-0.22772 4.128165,-4.46712 6.234013,-6.40198 4.82698,-4.43507 10.672271,-8.90215 16.617966,-12.69977 1.108966,-0.70831 1.232736,-0.76758 1.325749,-0.63478 0.05643,0.0806 0.557869,0.86865 1.114317,1.75132 2.565889,4.07015 5.714449,8.98811 7.341313,11.46692 0.290293,0.44231 0.853987,1.30672 1.252647,1.9209 l 0.72485,1.11669 -0.64997,0.40348 c -6.489979,4.02881 -12.954355,9.02304 -17.946317,13.86494 l -1.411938,1.36949 z m 30.607872,-1.16874 c -1.84663,-2.63736 -7.96631,-11.72253 -8.7236,-12.95087 l -0.24727,-0.40108 0.18906,-0.12082 c 3.93109,-2.51217 10.65454,-6.04318 15.7652,-8.27953 2.59081,-1.13371 7.95239,-3.20829 8.02731,-3.10605 0.0485,0.0662 0.64418,3.86841 0.85411,5.45167 0.51867,3.91183 1.02534,10.26686 0.91564,11.4847 l -0.0356,0.39518 -1.32531,0.52411 c -4.15592,1.64351 -9.50566,4.29736 -13.67168,6.78214 -0.69126,0.4123 -1.28397,0.74963 -1.31713,0.74963 -0.0332,0 -0.22699,-0.23809 -0.43073,-0.52908 z m 35.38869,-8.41125 c -0.5644,-1.06391 -2.20384,-1.89012 -4.02174,-2.02682 -0.32785,-0.0247 -0.79354,-0.0647 -1.03487,-0.089 l -0.43877,-0.0442 0.12199,-0.34575 c 0.34965,-0.99103 1.2627,-4.12586 1.6365,-5.61874 0.79729,-3.18419 1.43772,-6.58796 1.78253,-9.4739 0.0946,-0.79151 0.19334,-1.57545 0.2195,-1.74209 l 0.0476,-0.30298 0.77804,0.11378 c 2.7199,0.39778 4.75874,1.38686 5.85823,2.84195 0.37581,0.49736 0.81597,1.35063 0.92184,1.78706 0.0324,0.13353 0.076,0.22569 0.0969,0.2048 0.0757,-0.0757 0.55724,-2.59802 0.76419,-4.00301 0.38101,-2.58667 0.55249,-4.86994 0.56585,-7.53411 0.01,-1.97223 0.0267,-2.30513 0.0856,-1.69306 0.12763,1.32591 0.0126,6.71573 -0.18614,8.71925 -0.18281,1.84328 -0.58163,4.6336 -0.8409,5.88338 l -0.14927,0.71955 -0.0592,-0.87707 c -0.0326,-0.48238 -0.0923,-0.93622 -0.13275,-1.00853 -0.0829,-0.14806 -0.16796,0.11111 -0.59544,1.81349 -0.57546,2.29167 -1.66557,5.4425 -2.82194,8.15646 -0.52598,1.23447 -2.08046,4.4431 -2.32537,4.79984 -0.0469,0.0684 -0.13604,-0.0234 -0.27237,-0.28035 z M 37.099337,163.59783 c -1.157596,-3.08018 -1.919511,-6.15935 -2.40541,-9.72107 -0.216712,-1.58855 -0.255494,-4.42674 -0.08001,-5.85507 0.641786,-5.22355 2.769679,-10.60738 6.382129,-16.14754 0.417432,-0.64019 0.79257,-1.16398 0.833639,-1.16398 0.04107,0 0.07467,0.093 0.07467,0.20675 0,0.30891 0.539543,2.71323 0.92243,4.11055 0.582047,2.12413 1.503541,4.69532 2.537439,7.08006 0.285352,0.65818 0.51882,1.21881 0.51882,1.24586 0,0.027 -0.322709,0.50725 -0.717131,1.06712 -4.718822,6.69829 -7.271888,13.1589 -7.561665,19.135 l -0.05952,1.22747 z m 16.936396,-6.61827 c -2.013269,-2.75439 -4.352044,-6.47009 -6.037979,-9.59276 -1.054368,-1.95289 -2.032175,-4.00061 -1.957147,-4.09865 0.03859,-0.0504 0.463704,-0.60594 0.944696,-1.23449 4.575803,-5.97952 10.9888,-12.14284 18.215398,-17.50623 2.018442,-1.49804 5.262098,-3.73833 6.555085,-4.5274 0.06128,-0.0374 0.456764,0.57548 1.094986,1.69689 1.416622,2.4891 4.493664,7.75219 6.247707,10.68631 1.366261,2.28545 1.480293,2.50649 1.344434,2.60609 -0.08165,0.0598 -1.140265,0.76678 -2.352486,1.57095 -8.946857,5.93522 -17.008209,12.97589 -22.550273,19.69509 -0.48003,0.58199 -0.919972,1.10839 -0.977647,1.16979 -0.08525,0.0908 -0.183767,0.004 -0.526774,-0.46559 z m 71.517407,-0.77419 c -0.0463,-0.21758 -0.1845,-0.92892 -0.30707,-1.58075 -0.8661,-4.60569 -2.67078,-11.73244 -4.02902,-15.91076 -0.1355,-0.41683 -0.2179,-0.78191 -0.18312,-0.81128 0.099,-0.0836 1.42161,-0.45733 3.40704,-0.96271 7.30157,-1.85855 13.83914,-2.40284 18.84314,-1.56879 l 0.60044,0.10008 0.0984,0.77283 c 0.44118,3.4654 0.66472,8.61136 0.52559,12.09903 -0.0835,2.09294 -0.22252,4.30528 -0.30431,4.8425 l -0.0387,0.25396 -1.7991,-0.0288 c -3.33801,-0.0534 -6.68797,0.39979 -10.94162,1.48032 -1.48899,0.37823 -4.34675,1.20906 -5.30635,1.5427 l -0.48113,0.16728 z m -35.523589,-6.00195 c -3.451105,-5.55319 -5.48616,-8.86506 -8.492946,-13.8215 l -0.847341,-1.39678 0.183539,-0.14465 c 0.263772,-0.20788 4.01964,-2.45621 5.516673,-3.30237 7.272296,-4.11049 15.319514,-7.66822 22.517674,-9.95522 2.2592,-0.71779 4.94638,-1.48994 4.9975,-1.43602 0.0479,0.0505 0.76766,1.62366 1.5714,3.43449 1.33308,3.00342 2.82716,6.75722 3.93244,9.88002 0.51154,1.44528 1.4811,4.38769 1.45214,4.40691 -0.01,0.006 -0.60786,0.19298 -1.32953,0.41472 -8.08715,2.48488 -17.5955,6.84703 -26.284736,12.05865 -1.210539,0.72606 -2.220024,1.3291 -2.243303,1.34011 -0.02328,0.011 -0.461358,-0.65425 -0.97351,-1.47836 z m 62.817599,-8.12859 c -0.68712,-2.18915 -2.54649,-4.18346 -4.98591,-5.34774 -0.85368,-0.40745 -2.41945,-0.95281 -3.29452,-1.1475 -0.36057,-0.0802 -0.65558,-0.17803 -0.65558,-0.21736 0,-0.22196 -0.37891,-2.60253 -0.59899,-3.7632 -0.74799,-3.94492 -2.0243,-8.51435 -3.22198,-11.53535 -0.22642,-0.57111 -0.41167,-1.05429 -0.41167,-1.07372 0,-0.06 1.61088,0.50999 2.37028,0.83868 3.35337,1.45141 5.833,3.72935 7.11093,6.53249 1.07084,2.34891 2.47261,7.14969 3.16075,10.82499 0.3438,1.83615 0.81163,5.37546 0.71054,5.37546 -0.0171,0 -0.0998,-0.21904 -0.18385,-0.48675 z M 41.751786,129.63085 c -0.221496,-1.6357 -0.293281,-3.06393 -0.24358,-4.84638 0.04787,-1.71694 0.240969,-3.42924 0.476683,-4.22704 0.04724,-0.15988 0.06962,-0.30695 0.04974,-0.32683 -0.0495,-0.0495 -0.978682,1.39906 -1.755846,2.7373 -0.668512,1.15115 -1.557997,2.89213 -1.975234,3.86611 -0.133856,0.31246 -0.256238,0.55524 -0.271963,0.53952 -0.105266,-0.10527 1.652454,-4.21355 2.684821,-6.27518 0.650096,-1.29824 2.470215,-4.54097 2.520554,-4.49063 0.01526,0.0153 -0.108163,0.32598 -0.274276,0.69049 -0.350773,0.76972 -0.91559,2.51128 -0.874684,2.697 0.01581,0.0718 0.302984,-0.26782 0.65947,-0.77979 4.034569,-5.79431 10.200838,-11.80093 16.849355,-16.41313 1.629868,-1.13066 2.45156,-1.66968 2.481644,-1.62792 0.01358,0.0188 0.244326,0.54852 0.512785,1.17707 0.268456,0.62855 1.031986,2.24203 1.696731,3.58552 l 1.208631,2.44271 -0.965829,0.62707 c -3.033806,1.96973 -6.902096,4.89373 -9.884956,7.47196 -4.640009,4.01057 -9.20027,8.91827 -12.064246,12.98341 -0.349191,0.49564 -0.65618,0.90303 -0.682195,0.90531 -0.02601,0.002 -0.09243,-0.32918 -0.147602,-0.73657 z m 71.345684,-11.25673 c -1.82695,-3.76846 -4.34929,-8.16474 -6.71587,-11.70538 l -0.82044,-1.22747 0.78414,-0.18721 c 1.13747,-0.27156 3.76691,-0.74328 5.52471,-0.99112 7.43608,-1.04845 14.05813,-0.72216 19.32203,0.95206 0.43067,0.13698 0.78247,0.22488 0.78178,0.19533 -0.002,-0.0992 -1.52633,-1.90583 -2.54471,-3.01656 -1.69537,-1.84913 -3.80297,-3.752997 -5.70769,-5.155987 -1.23728,-0.91136 -1.25402,-0.92644 -0.88693,-0.79955 0.55551,0.19204 2.66509,1.31473 3.63815,1.93618 1.23779,0.79052 3.94103,2.796597 5.3243,3.951157 2.24862,1.87682 5.43262,5.00654 7.12999,7.0084 l 0.28597,0.33728 -0.3586,-0.27997 c -0.19723,-0.15399 -0.38195,-0.31777 -0.4105,-0.36396 -0.0902,-0.14587 -1.56919,-1.20503 -2.38632,-1.70887 -1.06226,-0.655 -3.84788,-1.92828 -3.96417,-1.81199 -0.0248,0.0247 0.28867,0.49593 0.69649,1.04709 2.12721,2.87486 4.25753,6.56546 5.81067,10.0665 0.83583,1.88411 0.9434,2.14759 0.89612,2.19487 -0.0195,0.0195 -0.396,-0.0576 -0.83676,-0.17128 -0.8999,-0.23207 -2.80673,-0.56971 -4.14516,-0.73396 -1.42666,-0.17508 -7.29259,-0.14553 -9.10019,0.0458 -3.4664,0.36699 -7.54822,1.08922 -10.41139,1.84218 -0.51266,0.13482 -0.9702,0.2429 -1.01676,0.24019 -0.0466,-0.003 -0.44654,-0.75141 -0.88886,-1.66377 z m -41.290577,1.39364 c -0.200902,-0.2517 -3.927519,-7.02861 -5.731935,-10.42362 l -0.490221,-0.92236 0.201692,-0.15226 c 0.383136,-0.28925 2.74712,-1.71824 4.476665,-2.70609 7.807968,-4.45958 16.162926,-7.832377 24.107441,-9.731897 0.953771,-0.22804 1.89833,-0.43924 2.099017,-0.46934 l 0.364884,-0.0547 1.552728,1.55381 c 2.201696,2.20322 4.248556,4.623907 6.242716,7.382867 0.84174,1.16458 0.84409,1.1761 0.26175,1.28068 -0.53714,0.0965 -3.7306,0.95703 -5.301059,1.42853 -7.278441,2.18521 -15.035654,5.54739 -22.301285,9.66597 -1.701895,0.96473 -4.672337,2.74166 -5.17547,3.09599 -0.173816,0.12241 -0.241802,0.13403 -0.306923,0.0524 z m -9.953961,-19.34217 c -0.348783,-0.932917 -0.574829,-1.790467 -0.546893,-2.074747 0.02311,-0.23525 0.11994,-0.32526 0.829939,-0.77149 5.650234,-3.55116 12.010454,-6.19045 18.370119,-7.62303 2.049241,-0.46162 2.753378,-0.56368 3.871373,-0.56113 1.379812,0.003 2.123514,0.11429 3.535759,0.52848 l 0.59257,0.17379 -1.608407,0.35991 c -2.424367,0.54249 -4.332825,1.07549 -6.81456,1.90318 -5.938888,1.98071 -11.464815,4.60269 -17.07101,8.099967 -0.472988,0.29506 -0.879167,0.53647 -0.902619,0.53647 -0.02344,0 -0.138776,-0.25713 -0.256271,-0.5714 z m 59.032618,-4.770217 c -2.14986,-0.74605 -5.11235,-1.33305 -8.06377,-1.59779 -1.40517,-0.12604 -4.8449,-0.1697 -6.49654,-0.0825 -2.77176,0.14641 -8.006292,0.83182 -9.410825,1.23227 -0.08657,0.0247 -0.311855,-0.11116 -0.581488,-0.35063 -2.099385,-1.86455 -5.137124,-3.81633 -6.980599,-4.48511 -0.232795,-0.0845 -0.453048,-0.17895 -0.489448,-0.20998 -0.121077,-0.10322 2.713866,-0.54913 5.187687,-0.81596 1.743547,-0.18807 6.939233,-0.2173 8.465293,-0.0476 3.89215,0.43276 7.66256,1.36638 11.93606,2.95559 2.33869,0.8697 5.1226,2.23463 6.75107,3.30999 0.36653,0.24203 0.53686,0.38199 0.42327,0.34778 -0.0116,-0.003 -0.34496,-0.11873 -0.74071,-0.25607 z"
       id="path22"
       mask="url(#mask24)"
       transform="matrix(0.20543139,-0.58178835,0.58178835,0.20543139,-57.990481,78.022712)" /></g><g
     inkscape:groupmode="layer"
     id="layer5"
     inkscape:label="sphere"
     transform="translate(7.6872714,0.09043849)"><ellipse
       style="opacity:1;mix-blend-mode:normal;fill:#000000;fill-opacity:0.502632;stroke:none;stroke-width:0.499999;stroke-linecap:round;stroke-linejoin:round;stroke-miterlimit:5.7;stroke-dasharray:none;stroke-opacity:1;filter:url(#filter25)"
       id="path25"
       cx="38.231922"
       cy="56.306519"
       rx="2.1026947"
       ry="5.4263091"
       transform="rotate(-34.742142,22.674574,9.6412846)" /><circle
       style="opacity:1;fill:#f20b21;fill-opacity:1;stroke:none;stroke-width:0.399635;stroke-linecap:round;stroke-linejoin:round;stroke-miterlimit:5.7;stroke-dasharray:none;stroke-opacity:1"
       id="path21"
       cx="6.8009129"
       cy="55.943989"
       r="4.481668"
       transform="translate(57.503512,-19.890515)" /><path
       id="circle22"
       style="opacity:1;mix-blend-mode:normal;fill:#a80818;fill-opacity:1;stroke:none;stroke-width:0.399635;stroke-linecap:round;stroke-linejoin:round;stroke-miterlimit:5.7;stroke-dasharray:none;stroke-opacity:1;filter:url(#filter22)"
       d="m 4.4880529,52.113871 a 4.481668,4.481668 0 0 0 -2.1688598,3.830257 4.481668,4.481668 0 0 0 4.481897,4.48138 4.481668,4.481668 0 0 0 3.6488729,-1.897041 4.481668,4.481668 0 0 1 -2.3125204,0.651123 4.481668,4.481668 0 0 1 -4.481897,-4.481897 4.481668,4.481668 0 0 1 0.8325073,-2.583822 z"
       transform="translate(57.503512,-19.890515)"
       mask="url(#mask28)" /></g><g
     inkscape:groupmode="layer"
     id="layer3"
     inkscape:label="flag"
     transform="rotate(48.504976,50.826849,53.873874)"><rect
       style="fill:#542e45;fill-opacity:1;stroke:#5c324b;stroke-width:0;stroke-linecap:round;stroke-linejoin:round;stroke-miterlimit:5.7;stroke-dasharray:none;stroke-opacity:1;paint-order:normal"
       id="rect1"
       width="7.7522135"
       height="0.41202611"
       x="68.222916"
       y="65.30764"
       transform="matrix(0.97095754,-0.23925185,0.24726198,0.96894867,0,0)" /><path
       style="fill:#f20b21;fill-opacity:1;stroke:#5c324b;stroke-width:0;stroke-linecap:round;stroke-linejoin:round;stroke-miterlimit:5.7;stroke-dasharray:none;stroke-opacity:1;paint-order:normal"
       d="m 89.839661,45.44489 c 0,0 1.432817,1.514233 0.241203,2.262493 -1.1642,0.731046 -0.263448,2.665081 0.06404,2.817571 0,0 -2.228783,-1.004084 -2.060015,-2.636184 0.06205,-0.73228 0.55219,-1.303155 -0.890109,-1.80081 z"
       id="path1"
       sodipodi:nodetypes="cscccc" /></g><g
     inkscape:groupmode="layer"
     id="layer4"
     inkscape:label="text"
     transform="translate(0.89344375,-1.254727)"><path
       id="text1"
       style="font-style:normal;font-variant:normal;font-weight:normal;font-stretch:normal;font-size:18.1641px;line-height:0;font-family:'Kirby Classic';-inkscape-font-specification:'Kirby Classic';text-align:center;letter-spacing:-1.82297px;text-anchor:middle;display:inline;fill:#ffb7d3;fill-opacity:1;stroke:#7b4366;stroke-width:0.5;stroke-linecap:round;stroke-linejoin:round;stroke-miterlimit:5.7;stroke-dasharray:none;stroke-opacity:1"
       d="m 57.283325,1.5595947 c -0.283517,-0.024088 -0.559553,0.03869 -0.82889,0.1886189 -0.344151,0.1915751 -0.571121,0.4797037 -0.680578,0.86403 -0.109458,0.3843263 -0.07362,0.7660585 0.108003,1.1451497 0.184942,0.367445 0.463887,0.6480276 0.836642,0.8423259 l 0.172082,0.049093 -2.539379,9.4567858 c -0.112774,0.395972 -0.06139,0.769042 0.153479,1.119829 0.226513,0.354102 0.572329,0.597512 1.038179,0.730188 0.384327,0.109458 0.744732,0.06133 1.080554,-0.145211 0.34747,-0.203222 0.533489,-0.502755 0.558106,-0.898653 l 1.035079,-3.634404 c 0.203092,0.04452 0.400763,0.07377 0.597896,0.101286 l 1.370459,5.785694 c 0.160028,0.410712 0.3998,0.718617 0.719336,0.922941 0.331182,0.207639 0.725947,0.256815 1.184941,0.148311 0.372531,-0.07017 0.666292,-0.282179 0.880566,-0.636654 0.214274,-0.354473 0.255228,-0.720654 0.123507,-1.098124 l -1.189075,-5.45238 c 0.285239,-0.121983 0.558849,-0.261325 0.807703,-0.435633 0.420589,-0.283123 0.754415,-0.571992 1.002006,-0.8666126 0.250908,-0.306269 0.461067,-0.623945 0.630452,-0.953431 C 64.81746,7.6180201 64.859977,6.4966704 64.471517,5.4291259 64.253184,4.9136708 63.929885,4.4564776 63.502067,4.0576334 63.085897,3.6621062 62.738676,3.399592 62.460787,3.2700846 62.186215,3.1289309 61.956213,3.0322166 61.769873,2.9791463 l -4.20026,-1.3663249 c -0.09608,-0.027364 -0.191782,-0.045197 -0.286288,-0.053227 z m 2.579688,3.935677 0.943611,0.2687175 c 0.36273,0.1410795 0.669815,0.455428 0.921391,0.9425781 l 0.01964,0.062528 c 0.01334,0.041573 0.01689,0.1179933 0.01034,0.2294434 -0.0032,0.099804 -0.02294,0.2134724 -0.05943,0.3415812 l -0.09457,0.3322794 c -0.01496,0.00833 -0.06509,0.050538 -0.149862,0.1271241 -0.08477,0.076586 -0.174888,0.1515233 -0.271301,0.224793 -0.0931,0.06162 -0.239716,0.133302 -0.43925,0.214974 -0.196217,0.07003 -0.405113,0.11749 -0.626318,0.142627 -0.206242,0.01681 -0.472751,0.0037 -0.800468,-0.03927 -0.08135,-0.01067 -0.167437,-0.03206 -0.251148,-0.04806 z M 29.715499,5.5975911 c -0.233774,-0.00674 -0.47047,0.032523 -0.710034,0.1178222 -0.410682,0.1462268 -0.724707,0.4191106 -0.942578,0.818038 -0.206465,0.3948656 -0.228617,0.820612 -0.06615,1.2769246 l 2.961059,8.3157711 c -0.438289,-0.09641 -0.827872,-0.0546 -1.164786,0.136426 l -1.959571,1.111043 -4.076237,-7.189742 C 23.548164,9.8151834 23.205087,9.5785664 22.727808,9.4733234 c -0.483253,-0.115776 -0.946116,-0.04827 -1.388546,0.202572 -0.379225,0.215012 -0.641393,0.5378336 -0.787032,0.9684156 -0.135105,0.42461 -0.08336,0.847295 0.155546,1.268656 l 4.882389,8.611878 c 0.20904,0.368691 0.544991,0.616936 1.007174,0.744657 0.472719,0.121749 0.887762,0.08111 1.245919,-0.121956 l 3.413228,-1.935282 c 0.452964,-0.25682 0.76028,-0.598207 0.922424,-1.024227 0.01669,-0.04429 0.02212,-0.08852 0.03462,-0.132809 0.431982,0.18822 0.837323,0.21834 1.215429,0.08372 l 3.696416,-1.316199 c 0.490535,-0.17466 0.85238,-0.457979 1.085721,-0.84956 0.240689,-0.407052 0.275501,-0.84999 0.104904,-1.329118 -0.138104,-0.387866 -0.42929,-0.682559 -0.873849,-0.884184 -0.444558,-0.201625 -0.860636,-0.233192 -1.248502,-0.09508 l -2.121835,0.755509 -2.77244,-7.7860877 C 31.157224,6.2349387 30.860384,5.9423931 30.40848,5.7562377 30.180496,5.657456 29.949273,5.6043324 29.715499,5.5975911 Z m 42.568978,3.1476113 c -0.146422,-0.0025 -0.280142,0.0092 -0.401526,0.03566 -0.226172,0.04867 -0.457717,0.129787 -0.694015,0.242879 -0.225887,0.119281 -0.379185,0.211249 -0.45992,0.275952 -0.06414,0.06048 -0.113665,0.108215 -0.148828,0.143661 l -4.106209,4.5955816 c -0.39581,-0.305774 -0.768373,-0.520166 -1.117761,-0.643372 -0.338981,-0.117017 -0.605523,-0.141655 -0.800468,-0.07441 -0.188758,0.05683 -0.362949,0.136345 -0.522449,0.238745 -0.153312,0.09199 -0.245292,0.199293 -0.275952,0.321945 -0.03488,0.106053 -0.0629,0.152937 -0.08372,0.140559 -0.156966,0.216612 -0.234943,0.430512 -0.234094,0.642338 8.48e-4,0.211826 0.04192,0.391346 0.123506,0.538469 0.09818,0.142903 0.223496,0.287759 0.375688,0.434599 0.15838,0.136431 0.268794,0.223318 0.331246,0.260449 l 0.171566,0.102319 -0.738457,0.744141 c -0.167656,0.139815 -0.278932,0.292017 -0.334346,0.456303 -0.04501,0.170474 -0.07793,0.320228 -0.09819,0.449068 -0.0098,0.135029 0.0075,0.271862 0.05168,0.410828 0.06077,0.134745 0.115192,0.244741 0.163298,0.329695 0.04811,0.08496 0.113003,0.165332 0.194303,0.241846 0.08552,0.09311 0.140844,0.154477 0.165881,0.183451 0.02504,0.02897 0.04791,0.04963 0.06873,0.06201 0.252341,0.262737 0.500904,0.424439 0.746208,0.485758 0.245303,0.06132 0.440574,0.100241 0.586011,0.116272 0.162034,0.01181 0.311836,-0.02643 0.448551,-0.114204 0.147123,-0.08158 0.238205,-0.139738 0.273368,-0.175184 0.04557,-0.02926 0.07755,-0.05972 0.09612,-0.09095 l 1.122929,-1.212846 1.502234,0.956531 c -0.284391,0.549403 -0.407712,1.123893 -0.370003,1.723926 -0.0135,0.259648 0.04248,0.497137 0.167948,0.712618 0.125469,0.215479 0.268049,0.377883 0.428398,0.487308 0.160349,0.109426 0.346513,0.198958 0.558622,0.268718 0.205921,0.08017 0.346334,0.12838 0.421163,0.144694 0.08524,0.0225 0.154761,0.03585 0.208773,0.03979 0.133273,0.0069 0.261721,-0.0111 0.385506,-0.05064 0.0023,0.118683 0.01238,0.242321 0.04082,0.377754 0.08205,0.309226 0.245582,0.614708 0.49041,0.917257 l 0.293005,0.222209 c 0.178117,0.147638 0.459836,0.210357 0.845427,0.189136 0.39425,-0.02969 0.794476,-0.21741 1.20096,-0.56379 l 3.592029,-2.925403 -2.25516,2.838069 -0.130741,0.204122 c -0.08721,0.136001 -0.106912,0.3496 -0.05891,0.641305 0.05666,0.283242 0.229027,0.572131 0.516764,0.866614 l 0.203088,0.207739 c 0.126745,0.147043 0.348379,0.227029 0.665076,0.239262 0.32516,0.02089 0.686308,-0.09497 1.083138,-0.347266 l 2.502173,-1.987475 -3.385323,3.917073 -0.09198,0.165882 c -0.06103,0.09349 -0.113435,0.221256 -0.15813,0.383439 -0.03623,0.170844 -0.04304,0.354679 -0.01964,0.551904 0.01474,0.205688 0.09392,0.408068 0.237195,0.606681 0.143273,0.198614 0.372386,0.380904 0.687296,0.547254 l 0.114722,0.09147 c 0.08502,0.05236 0.204397,0.09626 0.358118,0.132292 0.153719,0.03603 0.320326,0.05092 0.500228,0.04444 0.197026,-0.0063 0.407603,-0.08514 0.632002,-0.236678 0.241524,-0.151339 0.475264,-0.371377 0.701249,-0.659908 l 0.641822,-0.84801 c -0.0067,0.04199 -0.02008,0.08505 -0.02067,0.126091 0.01407,0.172807 0.05059,0.360695 0.109554,0.563789 0.06951,0.197146 0.12243,0.327394 0.15813,0.390674 l 0.09819,0.17415 -1.010791,0.278536 c -0.214994,0.03787 -0.387476,0.113986 -0.517281,0.228926 -0.123855,0.125488 -0.226841,0.239377 -0.308508,0.341065 -0.07572,0.112234 -0.128856,0.239367 -0.15968,0.381889 -0.01433,0.147118 -0.02168,0.269275 -0.02222,0.366902 -5.37e-4,0.09763 0.01508,0.200137 0.04754,0.306958 0.02786,0.123318 0.04541,0.203739 0.05271,0.241329 0.0073,0.03759 0.01704,0.06676 0.02894,0.08785 0.08818,0.353457 0.223379,0.617999 0.40566,0.793233 0.182281,0.175236 0.332435,0.30596 0.450618,0.392225 0.134681,0.09086 0.28319,0.132143 0.445451,0.124023 0.168212,0.0024 0.276391,-0.0028 0.324528,-0.01602 0.05409,-0.0027 0.09703,-0.01316 0.128675,-0.03101 l 1.577681,-0.493509 0.82734,1.577164 c -0.520036,0.335092 -0.912923,0.772288 -1.17874,1.311548 -0.140888,0.218518 -0.210922,0.452424 -0.209289,0.701766 0.0016,0.249342 0.04505,0.460922 0.129708,0.63562 0.08465,0.174699 0.201595,0.345555 0.350883,0.511597 0.138739,0.171992 0.236728,0.283483 0.293522,0.334863 0.06274,0.06193 0.116337,0.108206 0.16123,0.138493 0.218518,0.140888 0.465492,0.195911 0.740523,0.165881 0.275033,-0.03003 0.523176,-0.107076 0.744658,-0.232027 0.221482,-0.12495 0.44377,-0.285574 0.667143,-0.481107 0.239868,-0.190938 0.398352,-0.328738 0.475423,-0.413929 0.08762,-0.09114 0.151919,-0.162063 0.192753,-0.212907 0.691747,-0.69613 2.82341,-2.573214 6.395475,-5.63118 0.282056,-0.214738 0.487315,-0.455781 0.61495,-0.722437 0.133585,-0.256109 0.194794,-0.492135 0.183968,-0.708484 -0.01083,-0.216348 -0.04047,-0.429158 -0.08888,-0.638204 -0.03192,-0.204448 -0.08839,-0.353433 -0.168982,-0.447001 -0.07464,-0.08302 -0.10403,-0.135683 -0.08888,-0.15813 -0.179854,-0.343446 -0.408048,-0.62508 -0.684713,-0.844393 -0.266118,-0.225261 -0.518087,-0.3752 -0.754992,-0.450101 -0.220408,-0.0703 -0.461195,-0.114898 -0.722437,-0.134359 -0.255292,-0.0089 -0.43366,-0.0056 -0.535885,0.01034 -0.08573,0.02056 -0.152884,0.03739 -0.201021,0.05064 l -5.848222,1.944067 c -0.191217,-0.462166 -0.407791,-0.833957 -0.649573,-1.11466 -0.23583,-0.270156 -0.454765,-0.424357 -0.657324,-0.463021 -0.192011,-0.04461 -0.382753,-0.06218 -0.572058,-0.05271 -0.178758,0.0035 -0.311841,0.05097 -0.399459,0.14211 -0.08302,0.07464 -0.130727,0.101191 -0.142627,0.0801 -0.01791,0.0081 -0.02883,0.01996 -0.04599,0.02842 l 5.015715,-6.626469 0.07855,-0.127124 c 0.06083,-0.07636 0.109177,-0.191479 0.145211,-0.345199 0.0445,-0.145059 0.07204,-0.307605 0.08268,-0.487309 0.01064,-0.179702 -0.03813,-0.385584 -0.146761,-0.61805 -0.108628,-0.232464 -0.277535,-0.448416 -0.506429,-0.648022 l -0.216534,-0.14418 c -0.144464,-0.09587 -0.383448,-0.149833 -0.717269,-0.162264 -0.316697,-0.01223 -0.660177,0.06941 -1.030428,0.244946 l -3.470589,2.40037 2.145088,-3.315043 0.07855,-0.127641 c 0.05236,-0.08502 0.092,-0.199941 0.119372,-0.345198 0.03603,-0.15372 0.05092,-0.320326 0.04444,-0.500228 0.002,-0.171241 -0.06009,-0.364788 -0.186035,-0.580327 -0.117488,-0.206878 -0.294713,-0.40572 -0.532268,-0.596862 l -0.08888,-0.09095 c -0.07636,-0.06083 -0.195935,-0.113952 -0.358118,-0.158646 -0.153522,-0.05316 -0.336918,-0.08508 -0.550871,-0.09612 -0.213951,-0.01104 -0.493088,0.04991 -0.837158,0.182935 -0.335605,0.141686 -0.693415,0.347396 -1.073319,0.617017 l -6.406328,4.687052 c 5.97e-4,-0.0026 0.0041,-0.01091 0.0047,-0.01344 0.03066,-0.122652 0.05137,-0.216183 0.06149,-0.280603 0.25372,-0.948018 1.168886,-3.636877 2.746086,-8.066691 0.137834,-0.326604 0.196098,-0.637431 0.174149,-0.932243 -0.01154,-0.288623 -0.07624,-0.524131 -0.193269,-0.706417 -0.117029,-0.1822856 -0.248288,-0.3517636 -0.394292,-0.5090126 -0.129405,-0.161467 -0.252506,-0.262788 -0.368969,-0.303857 -0.106055,-0.03488 -0.158032,-0.06601 -0.156063,-0.09302 -0.326887,-0.208441 -0.664785,-0.33911 -1.013892,-0.391707 -0.171459,-0.0315 -0.330552,-0.04811 -0.476973,-0.05064 z m -1.061434,4.0597006 -1.247469,3.485058 -1.087272,-0.731221 0.0186,-0.03101 z m -53.432398,0.664559 c -1.041368,-0.04268 -1.954767,0.287576 -2.739884,0.99012 -0.404812,0.291498 -0.75249,0.693814 -1.04283,1.207162 -0.290342,0.513346 -0.487669,1.049615 -0.592212,1.609204 -0.03954,1.953754 0.612484,3.69475 1.955953,5.22242 0.499414,0.641236 1.013459,1.188969 1.542024,1.64331 0.52057,0.445249 1.000523,0.789297 1.439706,1.031979 0.431185,0.233589 0.875172,0.399163 1.332218,0.497127 0.457048,0.09796 0.85314,0.144815 1.188041,0.14056 0.326906,-0.01335 0.673679,-0.06824 1.040247,-0.164848 0.358571,-0.105699 0.634837,-0.204076 0.829407,-0.294556 0.19457,-0.09048 0.407778,-0.196893 0.63872,-0.31936 0.494649,-0.354376 0.922232,-0.80303 1.283126,-1.346171 0.368892,-0.534048 0.605038,-1.072391 0.708484,-1.614888 0.09294,-0.646136 5.8e-4,-1.347008 -0.276986,-2.102715 -0.285561,-0.7648 -0.593135,-1.389328 -0.922424,-1.873787 -0.329289,-0.484457 -0.759929,-1.057204 -1.292427,-1.717725 -1.167861,-1.456341 -2.503515,-2.369894 -4.006991,-2.740918 -0.375595,-0.09703 -0.737049,-0.152688 -1.084172,-0.166914 z m 0.108004,3.341398 c 0.241181,-0.01456 0.508455,0.03461 0.801502,0.147794 0.586092,0.226367 1.202335,0.71655 1.848982,1.470195 1.471419,1.673161 1.794291,2.86487 0.9679,3.575492 -0.853671,0.734613 -2.025621,0.209244 -3.515548,-1.576648 -0.832767,-0.92861 -1.195494,-1.827136 -1.088305,-2.695442 0.01283,-0.333806 0.126178,-0.562701 0.340031,-0.686264 0.189313,-0.142298 0.404258,-0.22057 0.645438,-0.235127 z m -8.8154825,4.735628 c -0.5578395,0.04667 -1.092687,0.210915 -1.60507,0.492993 -0.5055991,0.272047 -0.8635998,0.51999 -1.0733195,0.743624 -0.2197505,0.21685 -0.3834178,0.405365 -0.4919596,0.565857 l -2.6086263,3.56464 c -0.2238677,0.331016 -0.2965167,0.698707 -0.2185913,1.102259 0.074679,0.386735 0.2772164,0.691838 0.6082316,0.915706 0.3310151,0.223868 0.7050666,0.308575 1.1218953,0.254248 0.4067979,-0.06111 0.7605671,-0.238192 1.0614339,-0.531751 L 5.9774129,28.50627 14.170195,33.8677 c 0.341045,0.23065 0.711773,0.298862 1.112076,0.204122 0.407089,-0.104771 0.746671,-0.357897 1.018026,-0.759127 0.223868,-0.331016 0.289931,-0.68828 0.198438,-1.071769 -0.08471,-0.393521 -0.311591,-0.663935 -0.680062,-0.810804 l -3.130042,-2.116666 c 0.105639,-0.179049 0.195039,-0.357713 0.28267,-0.536402 l 5.924703,0.502295 c 0.440138,-0.02394 0.807432,-0.155973 1.101225,-0.395841 0.300577,-0.249899 0.471013,-0.609581 0.51108,-1.079521 0.04952,-0.375835 -0.06077,-0.720934 -0.330729,-1.035079 -0.269961,-0.314143 -0.604866,-0.46734 -1.00459,-0.45992 L 13.621391,25.73848 c -0.02692,-0.309183 -0.07372,-0.612385 -0.161747,-0.903304 -0.13782,-0.487914 -0.308378,-0.895533 -0.51108,-1.222664 -0.212733,-0.333916 -0.448781,-0.632886 -0.709001,-0.896586 -0.968576,-0.815862 -2.020946,-1.205556 -3.1563965,-1.169438 z m 0.3581177,3.004985 0.065629,5.16e-4 c 0.04366,2.9e-4 0.1173306,0.02102 0.2211751,0.06201 0.093814,0.03421 0.1955862,0.08868 0.3059247,0.163298 l 0.286287,0.193269 c 0.0032,0.01682 0.02757,0.07748 0.0739,0.181901 0.04633,0.104425 0.08965,0.21369 0.129191,0.328146 0.02951,0.107672 0.05181,0.269155 0.06718,0.484208 0.0053,0.208269 -0.01432,0.421228 -0.05943,0.639237 -0.04836,0.201196 -0.144279,0.450826 -0.287321,0.748792 -0.03544,0.07382 -0.08281,0.148838 -0.124023,0.223242 L 7.7090902,25.945186 8.2584106,25.132832 C 8.5055867,24.8322 8.8999693,24.638558 9.4412842,24.551473 Z m 78.0717208,5.050337 -2.815849,2.401921 -0.579293,-1.174605 0.03152,-0.01809 z" /><text
       xml:space="preserve"
       style="font-style:normal;font-variant:normal;font-weight:normal;font-stretch:normal;font-size:14.1111px;line-height:0;font-family:'Kirby Classic';-inkscape-font-specification:'Kirby Classic';text-align:center;letter-spacing:-1.57956px;text-anchor:middle;opacity:1;fill:#ffb7c5;fill-opacity:1;stroke:#7b434d;stroke-width:1;stroke-linecap:round;stroke-linejoin:round;stroke-miterlimit:5.7;stroke-dasharray:none;stroke-opacity:1"
       x="37.106709"
       y="8.4742889"
       id="text13"><tspan
         sodipodi:role="line"
         id="tspan13"
         style="stroke-width:1"
         x="37.106709"
         y="8.4742889"></tspan></text><path
       sodipodi:type="star"
       style="opacity:1;fill:#fba8af;fill-opacity:1;stroke:#893544;stroke-width:1.60366;stroke-linecap:round;stroke-linejoin:round;stroke-miterlimit:5.7;stroke-dasharray:none;stroke-opacity:1"
       id="path20"
       inkscape:flatsided="false"
       sodipodi:sides="5"
       sodipodi:cx="152.62029"
       sodipodi:cy="8.2035542"
       sodipodi:r1="24.293509"
       sodipodi:r2="11.903819"
       sodipodi:arg1="0.7704739"
       sodipodi:arg2="1.3987924"
       inkscape:rounded="0"
       inkscape:randomized="0"
       d="m 165.31499,23.525649 -10.65728,-3.593931 -8.82078,6.977668 a 2.3858807,2.3858807 26.144903 0 1 -3.86594,-1.897666 l 0.12475,-11.24626 -9.36193,-6.2328381 a 2.3858807,2.3858807 98.144903 0 1 0.61015,-4.2631449 l 10.73437,-3.35663948 3.03479,-10.82977352 a 2.3858807,2.3858807 170.1449 0 1 4.24304,-0.737103 l 6.50946,9.1717427 11.23752,-0.4603304 a 2.3858807,2.3858807 62.144903 0 1 2.0122,3.80759067 l -6.71131,9.02508803 3.91039,10.545274 a 2.3858807,2.3858807 134.1449 0 1 -2.99943,3.090323 z"
       transform="matrix(0.31115414,0.01986026,-0.01986026,0.31115414,-2.347584,4.0080031)"
       inkscape:transform-center-x="0.41276743"
       inkscape:transform-center-y="-0.53181529"
       inkscape:path-effect="#path-effect21" /></g><g
     inkscape:groupmode="layer"
     id="layer1"
     inkscape:label="sparkles"
     transform="translate(1.0583333,-1.0583333)"><text
       xml:space="preserve"
       style="font-weight:800;font-stretch:extra-expanded;font-size:6.17443px;line-height:0;font-family:'FOT-Seurat Pro';-inkscape-font-specification:'FOT-Seurat Pro Ultra-Bold Extra-Expanded';text-align:center;letter-spacing:-0.821974px;text-anchor:middle;fill:#ff75ab;fill-opacity:1;stroke:#b2257d;stroke-width:0.5;stroke-linecap:round;stroke-linejoin:round;stroke-miterlimit:5.7;stroke-dasharray:none;stroke-opacity:1;paint-order:normal"
       x="50.298454"
       y="-13.18875"
       id="text2-9"
       transform="rotate(26.693351)"
       inkscape:transform-center-x="-0.037331831"
       inkscape:transform-center-y="0.020511055"><tspan
         sodipodi:role="line"
         id="tspan2-5"
         style="fill:#ff75ab;fill-opacity:1;stroke:#b2257d;stroke-width:0.5;stroke-dasharray:none;stroke-opacity:1"
         x="49.887466"
         y="-13.18875"></tspan></text><text
       xml:space="preserve"
       style="font-weight:800;font-stretch:extra-expanded;font-size:4.76026px;line-height:0;font-family:'FOT-Seurat Pro';-inkscape-font-specification:'FOT-Seurat Pro Ultra-Bold Extra-Expanded';text-align:center;letter-spacing:-0.633711px;text-anchor:middle;fill:#ff75ab;fill-opacity:1;stroke:#b2257d;stroke-width:0.5;stroke-linecap:round;stroke-linejoin:round;stroke-miterlimit:5.7;stroke-dasharray:none;stroke-opacity:1;paint-order:normal"
       x="44.975857"
       y="16.436871"
       id="text2"
       transform="rotate(-12.523598)"
       inkscape:transform-center-x="-0.032294212"
       inkscape:transform-center-y="-0.0059469333"><tspan
         sodipodi:role="line"
         id="tspan2"
         style="fill:#ff75ab;fill-opacity:1;stroke:#b2257d;stroke-width:0.5;stroke-dasharray:none;stroke-opacity:1"
         x="44.659"
         y="16.436871"></tspan></text><text
       xml:space="preserve"
       style="font-weight:800;font-stretch:extra-expanded;font-size:3.13774px;line-height:0;font-family:'FOT-Seurat Pro';-inkscape-font-specification:'FOT-Seurat Pro Ultra-Bold Extra-Expanded';text-align:center;letter-spacing:-0.417714px;text-anchor:middle;fill:#ff75ab;fill-opacity:1;stroke:#b2257d;stroke-width:0.5;stroke-linecap:round;stroke-linejoin:round;stroke-miterlimit:5.7;stroke-dasharray:none;stroke-opacity:1;paint-order:normal"
       x="5.5934782"
       y="52.119831"
       id="text2-9-9"
       transform="rotate(-68.731419)"
       inkscape:transform-center-x="1.4564998"
       inkscape:transform-center-y="-0.068706351"><tspan
         sodipodi:role="line"
         id="tspan2-5-7"
         style="fill:#ff75ab;fill-opacity:1;stroke:#b2257d;stroke-width:0.5;stroke-dasharray:none;stroke-opacity:1"
         x="5.3846211"
         y="52.119831"></tspan></text></g></svg>
